<svg width="24" height="24" viewBox="0 0 24 24" fill="none" xmlns="http://www.w3.org/2000/svg">
<g clip-path="url(#clip0_2037_1908)">
<path d="M12.3525 17.1435C11.6839 16.4749 10.5954 16.4749 9.92674 17.1435L9.42101 17.6492L6.34374 14.5719L6.84948 14.0662C7.51806 13.3976 7.51806 12.309 6.84948 11.6404L4.62943 9.42038C3.96084 8.7518 2.87227 8.7518 2.20366 9.42038L1.24364 10.3804C0.43791 11.1861 -0.0078125 12.2661 -0.0078125 13.4146V14.006C-0.0078125 15.146 0.43791 16.2261 1.24364 17.0402L6.95217 22.7488C7.7579 23.5545 8.83792 24.0002 9.98637 24.0002H10.5778C11.7264 24.0002 12.7979 23.5545 13.612 22.7488L14.572 21.7887C15.2406 21.1202 15.2406 20.0316 14.572 19.363L12.3525 17.1435ZM12.3954 21.5321C11.9068 22.0207 11.2639 22.2864 10.5782 22.2864H9.98677C9.30105 22.2864 8.64961 22.0207 8.1696 21.5321L2.46106 15.8236C1.98105 15.3436 1.70676 14.6836 1.70676 14.0064V13.415C1.70676 12.7378 1.98105 12.0778 2.46106 11.5978L3.42108 10.6378L5.64113 12.8578L4.53541 13.9636C4.20111 14.2979 4.20111 14.8379 4.53541 15.1721L8.8212 19.4579C9.15551 19.7922 9.6955 19.7922 10.0298 19.4579L11.1355 18.3522L13.3556 20.5723L12.3954 21.5321Z" fill="black"/>
<path d="M22.2861 0.000137201H1.71432C0.771442 0.000137201 0 0.771579 0 1.71445V7.55163C0 8.02308 0.385707 8.40879 0.857158 8.40879C1.32861 8.40879 1.71432 8.02308 1.71432 7.55163V4.68859L7.5087 8.41729L7.10583 8.82017C6.77152 9.15447 6.77152 9.69447 7.10583 10.0287C7.27726 10.2002 7.49153 10.2773 7.71442 10.2773C7.93731 10.2773 8.15159 10.1916 8.32302 10.0287L8.9916 9.36016L11.5373 10.9973C11.6831 11.0916 11.8374 11.1345 12.0002 11.1345C12.1631 11.1345 12.3259 11.0916 12.4631 10.9973L15.0088 9.36016L21.069 15.4203H14.5631C14.0916 15.4203 13.7059 15.806 13.7059 16.2775C13.7059 16.7489 14.0916 17.1347 14.5631 17.1347H22.2775C23.2204 17.1347 23.9918 16.3632 23.9918 15.4203V1.71432C23.9918 0.771442 23.2204 0 22.2775 0L22.2861 0.000137201ZM12.0002 9.26595L1.71432 2.64869V1.7144H22.2861V2.64869L12.0002 9.26595ZM22.2861 4.68859V14.2117L16.4917 8.41729L22.2861 4.68859Z" fill="black"/>
</g>
<defs>
<clipPath id="clip0_2037_1908">
<rect width="24" height="24" fill="white"/>
</clipPath>
</defs>
</svg>
