<svg width="24" height="24" viewBox="0 0 24 24" fill="none" xmlns="http://www.w3.org/2000/svg">
<g clip-path="url(#clip0_2037_1914)">
<path d="M19.5 9.75H18C18 8.1587 17.3679 6.63258 16.2426 5.50736C15.1174 4.38214 13.5913 3.75 12 3.75C10.4087 3.75 8.88258 4.38214 7.75736 5.50736C6.63214 6.63258 6 8.1587 6 9.75H4.5C4.5 7.76088 5.29018 5.85322 6.6967 4.4467C8.10322 3.04018 10.0109 2.25 12 2.25C13.9891 2.25 15.8968 3.04018 17.3033 4.4467C18.7098 5.85322 19.5 7.76088 19.5 9.75Z" fill="black"/>
<path d="M21.75 9.75H20.25C20.25 7.56196 19.3808 5.46354 17.8336 3.91637C16.2865 2.36919 14.188 1.5 12 1.5C9.81196 1.5 7.71354 2.36919 6.16637 3.91637C4.61919 5.46354 3.75 7.56196 3.75 9.75H2.25C2.25 7.16414 3.27723 4.68419 5.10571 2.85571C6.93419 1.02723 9.41414 0 12 0C14.5859 0 17.0658 1.02723 18.8943 2.85571C20.7228 4.68419 21.75 7.16414 21.75 9.75Z" fill="black"/>
<path d="M5.25 18H0.75C0.551088 18 0.360322 17.921 0.21967 17.7803C0.0790176 17.6397 0 17.4489 0 17.25V9.75C0 9.55109 0.0790176 9.36032 0.21967 9.21967C0.360322 9.07902 0.551088 9 0.75 9H5.25C5.44891 9 5.63968 9.07902 5.78033 9.21967C5.92098 9.36032 6 9.55109 6 9.75V17.25C6 17.4489 5.92098 17.6397 5.78033 17.7803C5.63968 17.921 5.44891 18 5.25 18ZM1.5 16.5H4.5V10.5H1.5V16.5Z" fill="black"/>
<path d="M23.25 18H18.75C18.5511 18 18.3603 17.921 18.2197 17.7803C18.079 17.6397 18 17.4489 18 17.25V9.75C18 9.55109 18.079 9.36032 18.2197 9.21967C18.3603 9.07902 18.5511 9 18.75 9H23.25C23.4489 9 23.6397 9.07902 23.7803 9.21967C23.921 9.36032 24 9.55109 24 9.75V17.25C24 17.4489 23.921 17.6397 23.7803 17.7803C23.6397 17.921 23.4489 18 23.25 18ZM19.5 16.5H22.5V10.5H19.5V16.5Z" fill="black"/>
<path d="M10.5 22.5H3C2.80109 22.5 2.61032 22.421 2.46967 22.2803C2.32902 22.1397 2.25 21.9489 2.25 21.75V17.25H3.75V21H10.5V22.5Z" fill="black"/>
<path d="M13.5 24H10.5C10.3011 24 10.1103 23.921 9.96967 23.7803C9.82902 23.6397 9.75 23.4489 9.75 23.25V20.25C9.75 20.0511 9.82902 19.8603 9.96967 19.7197C10.1103 19.579 10.3011 19.5 10.5 19.5H13.5C13.6989 19.5 13.8897 19.579 14.0303 19.7197C14.171 19.8603 14.25 20.0511 14.25 20.25V23.25C14.25 23.4489 14.171 23.6397 14.0303 23.7803C13.8897 23.921 13.6989 24 13.5 24ZM11.25 22.5H12.75V21H11.25V22.5Z" fill="black"/>
<path d="M12.75 14.2503H11.25V12.7503C11.25 12.5514 11.329 12.3606 11.4697 12.22C11.6103 12.0793 11.8011 12.0003 12 12.0003C12.2967 12.0003 12.5867 11.9123 12.8334 11.7475C13.08 11.5827 13.2723 11.3484 13.3858 11.0743C13.4994 10.8002 13.5291 10.4986 13.4712 10.2077C13.4133 9.91668 13.2704 9.6494 13.0607 9.43963C12.8509 9.22985 12.5836 9.08699 12.2926 9.02911C12.0017 8.97123 11.7001 9.00093 11.426 9.11447C11.1519 9.228 10.9176 9.42026 10.7528 9.66693C10.588 9.9136 10.5 10.2036 10.5 10.5003H9C8.99958 9.93909 9.15658 9.38903 9.45317 8.9126C9.74975 8.43618 10.174 8.0525 10.6778 7.80515C11.1815 7.55781 11.7445 7.45672 12.3029 7.51338C12.8612 7.57003 13.3924 7.78216 13.8362 8.12566C14.28 8.46915 14.6186 8.93024 14.8134 9.45653C15.0082 9.98282 15.0515 10.5532 14.9384 11.1029C14.8253 11.6526 14.5602 12.1595 14.1734 12.566C13.7865 12.9726 13.2934 13.2625 12.75 13.4028V14.2503Z" fill="black"/>
<path d="M12.75 15H11.25V16.5H12.75V15Z" fill="black"/>
</g>
<defs>
<clipPath id="clip0_2037_1914">
<rect width="24" height="24" fill="white"/>
</clipPath>
</defs>
</svg>
