<svg width="24" height="24" viewBox="0 0 24 24" fill="none" xmlns="http://www.w3.org/2000/svg">
<path d="M11.8767 23.9942C7.75465 23.9942 4.39182 22.1172 4.03657 19.6017C3.9373 18.8965 3.94855 16.6486 7.65824 15.2515L5.90417 13.1754C1.50467 8.23218 5.22569 -0.21986 11.9882 0.00437302C18.7629 -0.168384 22.4718 8.20787 18.0713 13.1775C17.5105 13.8261 16.8985 14.5757 16.3285 15.2394C23.483 18.1744 19.199 24.2056 11.8768 23.9946L11.8767 23.9942ZM8.77901 16.5767C2.80445 18.4912 6.27991 22.406 11.9823 22.3768C17.922 22.3717 21.0155 18.4285 15.206 16.5687C14.1652 17.7346 13.3414 18.8984 12.3978 19.8075H12.3968L12.3947 19.8096H12.3937L12.3906 19.8126L12.3886 19.8136L12.3855 19.8166L12.3845 19.8146L12.3825 19.8166H12.3814C11.9977 20.0136 11.5238 19.8924 11.2844 19.5368C10.5547 18.6791 9.67036 17.6334 8.77901 16.5767ZM9.68571 15.126C9.69083 15.131 11.9842 17.8416 11.9893 17.8475C13.7414 15.7795 15.1863 14.0682 16.8177 12.1385C20.3115 8.25906 17.3888 1.39216 12.0017 1.62053C6.60137 1.39625 3.65692 8.23785 7.15809 12.1364C7.34332 12.3739 9.56303 14.9682 9.6848 15.126H9.68571ZM11.9883 12.2539C6.08345 12.1437 6.14476 3.62905 11.9883 3.53517C17.8738 3.63923 17.8636 12.1517 11.9883 12.2539ZM11.9883 5.15161C8.30325 5.12433 8.24797 10.6535 11.9883 10.6374C15.6959 10.6576 15.6941 5.12937 11.9883 5.15058V5.15161Z" fill="black"/>
</svg>
