<svg width="24" height="24" viewBox="0 0 24 24" fill="none" xmlns="http://www.w3.org/2000/svg">
<path d="M1.18325 3.72515C0.839466 3.72515 0.560547 3.44623 0.560547 3.10317C0.560547 2.75939 0.839466 2.48047 1.18325 2.48047H3.90613C4.19874 2.48047 4.44379 2.68227 4.51082 2.95398L4.9901 4.48623H13.6878H22.8416C22.8978 4.48696 22.9548 4.49416 23.0117 4.51074C23.3418 4.60443 23.5335 4.94894 23.4398 5.27903L22.1721 9.68984C22.1678 9.71002 22.162 9.72948 22.1555 9.74822L21.4449 12.221C21.3793 12.4495 21.1847 12.6304 20.9339 12.6657L13.8146 13.6826C13.7894 13.6877 13.7641 13.6913 13.7382 13.6934L7.41676 14.5965L6.54253 14.7515V16.2477H20.5274C20.8712 16.2477 21.1494 16.5266 21.1494 16.8704C21.1494 17.2142 20.8705 17.4924 20.5274 17.4924H19.509C19.8636 17.9205 20.0769 18.4704 20.0769 19.07C20.0769 19.7533 19.7995 20.3716 19.3519 20.8192C18.9043 21.2668 18.2852 21.5443 17.602 21.5443C16.9187 21.5443 16.3004 21.2668 15.8528 20.8192C15.4052 20.3716 15.1278 19.7525 15.1278 19.07C15.1278 18.4704 15.3411 17.9212 15.6957 17.4924H10.6701C11.0247 17.9205 11.238 18.4704 11.238 19.07C11.238 19.7533 10.9613 20.3716 10.513 20.8192C10.0654 21.2668 9.44703 21.5443 8.76379 21.5443C8.08055 21.5443 7.46217 21.2668 7.0146 20.8192C6.56703 20.3716 6.28956 19.7525 6.28956 19.07C6.28956 18.4704 6.50289 17.9212 6.85748 17.4924H5.91838C5.5746 17.4924 5.29568 17.2134 5.29568 16.8704V14.2304C5.29568 13.9334 5.50901 13.6704 5.811 13.6178L6.50361 13.4945L5.3382 9.7684C5.32883 9.74461 5.32163 9.72011 5.31514 9.69488L3.9501 5.3302C3.94073 5.30641 3.93352 5.28191 3.92703 5.25668L3.44775 3.72443H1.18109L1.18325 3.72515ZM6.37748 8.92371H8.97064L8.62253 5.73092H5.37929L6.37748 8.92371ZM10.2196 8.92371H13.0651V5.73092H9.87226L10.2204 8.92371H10.2196ZM14.3097 8.92371H17.3166L17.6647 5.73092H14.3097V8.92371ZM18.5663 8.92371H21.0982L22.0157 5.73092H18.9144L18.5663 8.92371ZM20.74 10.1684H18.4308L18.2542 11.7929L20.3602 11.4924L20.7407 10.1691L20.74 10.1684ZM17.1811 10.1684H14.3097V12.3558L16.9843 11.9738L17.1811 10.1684ZM13.0651 10.1684H10.3559L10.6514 12.879L13.0658 12.5338V10.1684H13.0651ZM9.10613 10.1684H6.76739L7.74469 13.2942L9.42037 13.0549L9.10613 10.1691V10.1684ZM18.4719 18.2008C18.2492 17.9781 17.9422 17.8405 17.6027 17.8405C17.2632 17.8405 16.9562 17.9781 16.7335 18.2008C16.5108 18.4235 16.3732 18.7306 16.3732 19.07C16.3732 19.4095 16.5108 19.7165 16.7335 19.9392C16.9562 20.1619 17.2632 20.2996 17.6027 20.2996C17.9422 20.2996 18.2499 20.1619 18.4719 19.9392C18.6946 19.7165 18.8323 19.4095 18.8323 19.07C18.8323 18.7306 18.6946 18.4228 18.4719 18.2008ZM9.63442 18.2008C9.41172 17.9781 9.10469 17.8405 8.76523 17.8405C8.42577 17.8405 8.11802 17.9781 7.89604 18.2008C7.67334 18.4235 7.53568 18.7306 7.53568 19.07C7.53568 19.4095 7.67334 19.7165 7.89604 19.9392C8.11802 20.1619 8.42577 20.2996 8.76523 20.2996C9.10469 20.2996 9.41244 20.1619 9.63442 19.9392C9.85712 19.7165 9.99406 19.4095 9.99406 19.07C9.99406 18.7306 9.8564 18.4228 9.63442 18.2008Z" fill="black"/>
</svg>
