<svg width="110" height="110" viewBox="0 0 110 110" fill="none" xmlns="http://www.w3.org/2000/svg">
<path d="M91.891 75.281V67.6091C91.891 65.7497 90.5004 64.1872 88.6566 63.9685L76.9066 62.5935V26.3275C76.9026 25.8705 76.7034 25.4369 76.3597 25.14C76.2776 25.1049 61.8327 11.718 61.7657 11.671C61.4727 11.3976 61.086 11.2453 60.6876 11.2492H22.7656C20.2226 11.2296 18.1406 13.2687 18.1094 15.8117V84.9837C18.1406 87.5267 20.2227 89.5657 22.7656 89.5462H45.3676C46.1293 91.4798 47.9965 92.7571 50.0746 92.761H53.6566C53.4964 93.218 53.4183 93.7024 53.4222 94.1868C53.4339 95.511 54.0238 96.7649 55.0355 97.6204C56.0472 98.4719 57.3793 98.8431 58.6878 98.6321C59.9964 98.4211 61.1448 97.6516 61.8401 96.5227C62.5315 95.3938 62.6995 94.0227 62.2932 92.761H71.1096C70.6526 94.1477 70.887 95.6751 71.7424 96.8587C72.6018 98.0462 73.9729 98.7493 75.4377 98.7493C76.8986 98.7493 78.2736 98.0461 79.133 96.8587C79.9885 95.6751 80.2228 94.1478 79.7619 92.761H82.3283C83.1916 92.761 83.8908 92.0617 83.8908 91.1985C83.8908 90.3352 83.1916 89.636 82.3283 89.636H50.0743C49.004 89.636 48.1368 88.7649 48.1368 87.6946C48.1368 86.6243 49.004 85.7571 50.0743 85.7571H51.4766C51.504 85.7571 51.5313 85.7649 51.5626 85.7649H88.2346C90.2541 85.761 91.8869 84.1282 91.8908 82.1087L91.891 75.281ZM88.766 67.6091V73.5505L85.1254 73.3591V66.7029L88.2973 67.0779C88.5707 67.1014 88.7738 67.3357 88.766 67.6091ZM82.0004 66.3435V73.1951L75.9574 72.8787V65.6248L82.0004 66.3435ZM51.0164 82.2025L49.5945 74.6244L54.4968 74.8823V82.6323H51.5437C51.2897 82.6244 51.0749 82.4486 51.0164 82.2025ZM72.8324 65.2645V72.7137L66.7894 72.3973V64.5496L72.8324 65.2645ZM63.6644 72.2293L57.6214 71.9129V63.4832H57.6253L63.6644 64.1864L63.6644 72.2293ZM63.6644 82.6313H57.6214V75.0454L63.6644 75.3619V82.6313ZM54.4964 71.7483L49.0003 71.4593L47.2659 62.264L54.4964 63.1077V71.7483ZM66.7894 75.5256L72.8324 75.8421V82.639H66.7894V75.5256ZM75.9574 76.0061L82.0004 76.3225V82.6389H75.9574V76.0061ZM21.2344 84.9827V15.8107C21.2617 14.9904 21.9453 14.3459 22.7656 14.3732H59.1406V23.2013C59.1484 25.7872 61.2422 27.881 63.8281 27.8888H73.7812V62.2168L46.4062 59.0137L44.3906 54.4356C43.6132 52.8379 41.875 51.9434 40.125 52.2481V51.2169C40.125 50.8029 39.9609 50.4044 39.6679 50.1114C39.375 49.8184 38.9765 49.6505 38.5624 49.6544H33.828C28.7655 49.7638 28.7577 57.4786 33.828 57.5919H38.5624C38.9765 57.5919 39.3749 57.4278 39.6679 57.1349C39.9609 56.8419 40.125 56.4434 40.125 56.0294V55.3731H41.0468C41.2578 55.377 41.4492 55.5059 41.5312 55.7012L43.8437 60.9356L47.9531 82.7946C47.9726 82.8884 47.9961 82.9782 48.0312 83.0681C46.625 83.697 45.5781 84.9275 45.1914 86.4197H22.7654C21.9451 86.4431 21.2617 85.803 21.2344 84.9827ZM88.2344 82.6389H85.125V76.4866L88.7656 76.678V82.1077C88.7577 82.3968 88.5234 82.6311 88.2344 82.6389Z" fill="black"/>
<path d="M28.7461 26.1519H50.6561C51.5077 26.1362 52.1913 25.4409 52.1913 24.5894C52.1913 23.7378 51.5077 23.0425 50.6561 23.0269H28.7461C27.8946 23.0425 27.2109 23.7378 27.2109 24.5894C27.2109 25.4409 27.8945 26.1363 28.7461 26.1519Z" fill="black"/>
<path d="M28.746 34.4878H66.273C67.1246 34.4722 67.8042 33.7769 67.8042 32.9253C67.8042 32.0737 67.1246 31.3784 66.273 31.3628H28.746C27.8945 31.3784 27.2148 32.0737 27.2148 32.9253C27.2148 33.7769 27.8945 34.4722 28.746 34.4878Z" fill="black"/>
<path d="M67.8356 39.5938C67.8356 39.1797 67.6716 38.7813 67.3786 38.4883C67.0856 38.1953 66.6872 38.0312 66.2731 38.0312H28.7461C27.8828 38.0312 27.1836 38.7305 27.1836 39.5938C27.1836 40.457 27.8828 41.1562 28.7461 41.1562H66.2731C66.6872 41.1562 67.0856 40.9922 67.3786 40.6992C67.6716 40.4062 67.8356 40.0079 67.8356 39.5938Z" fill="black"/>
</svg>
