<svg width="24" height="24" viewBox="0 0 24 24" fill="none" xmlns="http://www.w3.org/2000/svg">
<path fill-rule="evenodd" clip-rule="evenodd" d="M23.0876 10.3204L22.0316 9.26437C21.6236 8.85637 20.9756 8.85637 20.5676 9.26437L17.9996 11.8324V2.35237C17.9996 2.04037 17.7356 1.77637 17.4236 1.77637H1.17561C0.863609 1.77637 0.599609 2.04037 0.599609 2.35237V21.6244C0.599609 21.9364 0.863609 22.2004 1.17561 22.2004H17.4236C17.7356 22.2004 17.9996 21.9364 17.9996 21.6244V16.8724L23.0876 11.7844C23.4956 11.3764 23.4956 10.7284 23.0876 10.3204ZM15.0716 18.1924L13.8476 18.5284L14.1836 17.3044L14.3996 17.0884L15.2876 17.9764L15.0716 18.1924ZM16.1036 17.1364L15.2156 16.2484L19.7276 11.7604L20.6156 12.6484L16.1036 17.1364ZM16.8476 21.0724H1.75161V2.92837H16.8476V12.9844L13.3436 16.5124C13.2236 16.6324 13.1276 16.8004 13.0796 16.9684L12.6716 18.5044C12.5756 18.8404 12.6716 19.2004 12.9356 19.4644C13.1276 19.6564 13.3676 19.7524 13.6316 19.7524C13.7276 19.7524 13.7996 19.7524 13.8956 19.7284L15.4076 19.3204C15.5756 19.2724 15.7436 19.1764 15.8636 19.0564L16.8716 18.0484V21.0724H16.8476ZM21.4316 11.8324L20.5436 10.9444L21.3116 10.1764L22.1996 11.0644L21.4316 11.8324Z" fill="black"/>
<path fill-rule="evenodd" clip-rule="evenodd" d="M7.05647 7.27212H13.6805C13.9925 7.27212 14.2565 7.00812 14.2565 6.69612C14.2565 6.38412 13.9925 6.12012 13.6805 6.12012H7.05647C6.74447 6.12012 6.48047 6.38412 6.48047 6.69612C6.48047 7.00812 6.72047 7.27212 7.05647 7.27212Z" fill="black"/>
<path fill-rule="evenodd" clip-rule="evenodd" d="M7.05647 10.8004H13.6805C13.9925 10.8004 14.2565 10.5364 14.2565 10.2244C14.2565 9.91244 13.9925 9.64844 13.6805 9.64844H7.05647C6.74447 9.64844 6.48047 9.91244 6.48047 10.2244C6.48047 10.5604 6.72047 10.8004 7.05647 10.8004Z" fill="black"/>
<path fill-rule="evenodd" clip-rule="evenodd" d="M7.05647 14.3522H13.6805C13.9925 14.3522 14.2565 14.0882 14.2565 13.7762C14.2565 13.4642 13.9685 13.2002 13.6565 13.2002H7.05647C6.72047 13.2002 6.48047 13.4402 6.48047 13.7762C6.48047 14.1122 6.72047 14.3522 7.05647 14.3522Z" fill="black"/>
<path fill-rule="evenodd" clip-rule="evenodd" d="M10.6565 16.7285H7.05647C6.74447 16.7285 6.48047 16.9925 6.48047 17.3045C6.48047 17.6165 6.74447 17.8805 7.05647 17.8805H10.6565C10.9685 17.8805 11.2325 17.6165 11.2325 17.3045C11.2325 16.9925 10.9685 16.7285 10.6565 16.7285Z" fill="black"/>
<path d="M4.53448 7.58459C5.02491 7.58459 5.42248 7.18702 5.42248 6.69659C5.42248 6.20616 5.02491 5.80859 4.53448 5.80859C4.04406 5.80859 3.64648 6.20616 3.64648 6.69659C3.64648 7.18702 4.04406 7.58459 4.53448 7.58459Z" fill="black"/>
<path d="M4.53448 11.1119C5.02491 11.1119 5.42248 10.7144 5.42248 10.2239C5.42248 9.73351 5.02491 9.33594 4.53448 9.33594C4.04406 9.33594 3.64648 9.73351 3.64648 10.2239C3.64648 10.7144 4.04406 11.1119 4.53448 11.1119Z" fill="black"/>
<path d="M4.53448 14.6647C5.02491 14.6647 5.42248 14.2671 5.42248 13.7767C5.42248 13.2862 5.02491 12.8887 4.53448 12.8887C4.04406 12.8887 3.64648 13.2862 3.64648 13.7767C3.64648 14.2671 4.04406 14.6647 4.53448 14.6647Z" fill="black"/>
<path d="M4.53448 18.192C5.02491 18.192 5.42248 17.7944 5.42248 17.304C5.42248 16.8136 5.02491 16.416 4.53448 16.416C4.04406 16.416 3.64648 16.8136 3.64648 17.304C3.64648 17.7944 4.04406 18.192 4.53448 18.192Z" fill="black"/>
</svg>
