<svg width="24" height="24" viewBox="0 0 24 24" fill="none" xmlns="http://www.w3.org/2000/svg">
<path d="M19.4223 17.251C18.8026 17.251 18.1968 17.4347 17.6816 17.779C17.1663 18.1233 16.7647 18.6127 16.5276 19.1852C16.2904 19.7578 16.2284 20.3878 16.3493 20.9956C16.4702 21.6034 16.7686 22.1617 17.2068 22.5999C17.645 23.0381 18.2033 23.3365 18.8111 23.4574C19.4189 23.5783 20.0489 23.5162 20.6214 23.2791C21.194 23.0419 21.6833 22.6403 22.0276 22.125C22.3719 21.6098 22.5557 21.004 22.5557 20.3843C22.5557 19.9728 22.4746 19.5654 22.3171 19.1852C22.1597 18.8051 21.9289 18.4596 21.6379 18.1687C21.347 17.8777 21.0016 17.6469 20.6214 17.4895C20.2413 17.332 19.8338 17.251 19.4223 17.251ZM21.0387 19.8764L19.2187 21.6965C19.112 21.8031 18.9673 21.863 18.8165 21.863C18.6657 21.863 18.521 21.8031 18.4144 21.6965L17.5211 20.8032C17.4682 20.7504 17.4262 20.6877 17.3975 20.6187C17.3689 20.5497 17.3541 20.4757 17.3541 20.4009C17.354 20.3262 17.3687 20.2521 17.3973 20.1831C17.4259 20.114 17.4678 20.0513 17.5206 19.9984C17.5735 19.9455 17.6362 19.9036 17.7053 19.8751C17.7744 19.8465 17.8484 19.8318 17.9231 19.8318C17.9979 19.8319 18.0719 19.8467 18.1409 19.8753C18.21 19.904 18.2727 19.946 18.3254 19.9989L18.8165 20.49L20.2344 19.0721C20.3411 18.9655 20.4857 18.9055 20.6366 18.9055C20.7874 18.9055 20.9321 18.9654 21.0387 19.0721C21.0915 19.1249 21.1334 19.1876 21.162 19.2566C21.1906 19.3256 21.2053 19.3996 21.2053 19.4743C21.2053 19.549 21.1906 19.6229 21.162 19.6919C21.1334 19.7609 21.0915 19.8236 21.0387 19.8764Z" fill="black"/>
<path d="M7.18534 6.29822H12.3372C12.7957 6.29774 13.2353 6.11525 13.5594 5.79084C13.8835 5.46644 14.0655 5.02665 14.0655 4.56811C14.0655 4.10957 13.8835 3.66978 13.5594 3.34537C13.2353 3.02097 12.7957 2.83848 12.3372 2.838H11.48V2.201C11.4802 1.97514 11.436 1.75145 11.3497 1.54272C11.2634 1.33398 11.1369 1.1443 10.9772 0.984509C10.8176 0.82472 10.6281 0.697958 10.4194 0.611471C10.2108 0.524985 9.98713 0.480469 9.76127 0.480469C9.53542 0.480469 9.31177 0.524985 9.10313 0.611471C8.89449 0.697958 8.70493 0.82472 8.54531 0.984509C8.38569 1.1443 8.25912 1.33398 8.17286 1.54272C8.08659 1.75145 8.0423 1.97514 8.04254 2.201V2.83799H7.18534C6.7268 2.83847 6.2872 3.02096 5.96313 3.34537C5.63906 3.66977 5.45703 4.10956 5.45703 4.5681C5.45703 5.02664 5.63906 5.46643 5.96313 5.79084C6.2872 6.11524 6.7268 6.29774 7.18534 6.29822ZM7.18534 3.81665H12.3372C12.5365 3.81665 12.7276 3.89582 12.8686 4.03675C13.0095 4.17768 13.0887 4.36881 13.0887 4.56811C13.0887 4.76741 13.0095 4.95855 12.8686 5.09947C12.7276 5.2404 12.5365 5.31957 12.3372 5.31957H7.18534C6.98604 5.31957 6.7949 5.2404 6.65398 5.09947C6.51305 4.95855 6.43388 4.76741 6.43388 4.56811C6.43388 4.36881 6.51305 4.17768 6.65398 4.03675C6.7949 3.89582 6.98604 3.81665 7.18534 3.81665Z" fill="black"/>
<path d="M14.5963 22.0423L13.4004 20.8464C13.2903 20.7365 13.1411 20.6747 12.9855 20.6747C12.8299 20.6747 12.6806 20.7365 12.5705 20.8464L11.3746 22.0423L10.1787 20.8464C10.0686 20.7365 9.9194 20.6747 9.76379 20.6747C9.60818 20.6747 9.45893 20.7365 9.34884 20.8464L8.15295 22.0423L6.95704 20.8464C6.84695 20.7365 6.6977 20.6747 6.54209 20.6747C6.38648 20.6747 6.23723 20.7365 6.12714 20.8464L4.93125 22.0423L3.7373 20.8464C3.62683 20.7364 3.47728 20.6747 3.32138 20.6747C3.16548 20.6747 3.01593 20.7364 2.90545 20.8464L2.61968 21.1322V5.1568H4.24423C4.16594 4.76925 4.16594 4.36997 4.24423 3.98242H2.0325C1.8769 3.98288 1.72782 4.04489 1.6178 4.15491C1.50778 4.26493 1.44577 4.41402 1.44531 4.56962V22.3242C1.44489 22.5045 1.51598 22.6777 1.643 22.8057H1.64496C1.70796 22.869 1.78284 22.9192 1.8653 22.9534C1.94776 22.9877 2.03618 23.0053 2.12547 23.0053C2.21477 23.0053 2.30318 22.9877 2.38564 22.9534C2.4681 22.9192 2.54298 22.869 2.60599 22.8057L3.32235 22.0913L4.5163 23.2872C4.62678 23.3972 4.77633 23.4589 4.93222 23.4589C5.08812 23.4589 5.23767 23.3972 5.34815 23.2872L6.5421 22.0913L7.738 23.2872C7.84809 23.3971 7.99733 23.4589 8.15295 23.4589C8.30856 23.4589 8.4578 23.3971 8.56789 23.2872L9.76379 22.0913L10.9597 23.2872C11.0698 23.3971 11.219 23.4589 11.3746 23.4589C11.5303 23.4589 11.6795 23.3971 11.7896 23.2872L12.9855 22.0913L14.1814 23.2872C14.2356 23.3421 14.3002 23.3856 14.3715 23.4152C14.4427 23.4448 14.5192 23.4598 14.5964 23.4594C14.6734 23.4594 14.7498 23.4442 14.821 23.4147C14.8922 23.3851 14.9569 23.3418 15.0113 23.2872L15.6474 22.6511C15.4282 22.2873 15.2627 21.8937 15.1561 21.4826L14.5963 22.0423Z" fill="black"/>
<path d="M16.9078 5.1568V16.7713C17.267 16.5183 17.6631 16.3223 18.0821 16.19V4.56962C18.0817 4.41402 18.0197 4.26493 17.9096 4.15491C17.7996 4.04489 17.6505 3.98288 17.4949 3.98242H15.2832C15.3615 4.36997 15.3615 4.76925 15.2832 5.1568H16.9078Z" fill="black"/>
<path d="M5.5518 10.4568C6.17427 10.3099 6.55976 9.68616 6.41281 9.06369C6.26587 8.44122 5.64213 8.05573 5.01966 8.20268C4.39719 8.34963 4.0117 8.97336 4.15865 9.59583C4.30559 10.2183 4.92933 10.6038 5.5518 10.4568Z" fill="black"/>
<path d="M7.8125 9.33023C7.8125 9.50975 7.88382 9.68192 8.01076 9.80886C8.1377 9.9358 8.30987 10.0071 8.48939 10.0071H14.7201C14.8996 10.0071 15.0718 9.9358 15.1987 9.80886C15.3257 9.68192 15.397 9.50974 15.397 9.33022C15.397 9.15069 15.3257 8.97852 15.1987 8.85158C15.0718 8.72464 14.8996 8.65332 14.7201 8.65332H8.48939C8.4005 8.65332 8.31248 8.67083 8.23036 8.70485C8.14823 8.73887 8.07361 8.78873 8.01075 8.85158C7.9479 8.91444 7.89804 8.98906 7.86402 9.07119C7.83001 9.15331 7.8125 9.24133 7.8125 9.33023Z" fill="black"/>
<path d="M5.47115 17.5197C6.10247 17.4172 6.53121 16.8224 6.42876 16.1911C6.32631 15.5597 5.73147 15.131 5.10015 15.2334C4.46882 15.3359 4.04008 15.9307 4.14253 16.5621C4.24498 17.1934 4.83982 17.6221 5.47115 17.5197Z" fill="black"/>
<path d="M8.48939 17.053H14.7201C14.8996 17.053 15.0718 16.9817 15.1987 16.8547C15.3257 16.7278 15.397 16.5556 15.397 16.3761C15.397 16.1966 15.3257 16.0244 15.1987 15.8975C15.0718 15.7705 14.8996 15.6992 14.7201 15.6992H8.48939C8.30987 15.6992 8.1377 15.7705 8.01076 15.8975C7.88382 16.0244 7.8125 16.1966 7.8125 16.3761C7.8125 16.5556 7.88382 16.7278 8.01076 16.8547C8.1377 16.9817 8.30987 17.053 8.48939 17.053Z" fill="black"/>
<path d="M5.47115 13.9962C6.10247 13.8938 6.53121 13.2989 6.42876 12.6676C6.32631 12.0363 5.73147 11.6076 5.10015 11.71C4.46882 11.8125 4.04008 12.4073 4.14253 13.0386C4.24498 13.6699 4.83982 14.0987 5.47115 13.9962Z" fill="black"/>
<path d="M8.49022 13.5305H10.1458C10.2347 13.5307 10.3229 13.5133 10.4051 13.4793C10.4874 13.4454 10.5622 13.3956 10.6251 13.3327C10.6881 13.2698 10.7381 13.1951 10.7722 13.1129C10.8062 13.0308 10.8238 12.9426 10.8238 12.8537C10.8238 12.7647 10.8062 12.6766 10.7722 12.5944C10.7381 12.5122 10.6881 12.4375 10.6251 12.3746C10.5622 12.3117 10.4874 12.2619 10.4051 12.228C10.3229 12.194 10.2347 12.1766 10.1458 12.1768H8.49022C8.31089 12.1771 8.13901 12.2485 8.01231 12.3754C7.88561 12.5023 7.81445 12.6743 7.81445 12.8537C7.81445 13.033 7.88561 13.205 8.01231 13.3319C8.13901 13.4588 8.31089 13.5302 8.49022 13.5305Z" fill="black"/>
<path d="M14.7204 12.1768H12.8691C12.6898 12.1771 12.5179 12.2485 12.3912 12.3754C12.2645 12.5023 12.1934 12.6743 12.1934 12.8537C12.1934 13.033 12.2645 13.205 12.3912 13.3319C12.5179 13.4588 12.6898 13.5302 12.8691 13.5305H14.7204C14.8997 13.5302 15.0716 13.4588 15.1983 13.3319C15.325 13.205 15.3962 13.033 15.3962 12.8537C15.3962 12.6743 15.325 12.5023 15.1983 12.3754C15.0716 12.2485 14.8997 12.1771 14.7204 12.1768Z" fill="black"/>
</svg>
