<svg width="24" height="24" viewBox="0 0 24 24" fill="none" xmlns="http://www.w3.org/2000/svg">
<g clip-path="url(#clip0_2037_1926)">
<path fill-rule="evenodd" clip-rule="evenodd" d="M3.37233 1.33301C3.27955 1.33293 3.18767 1.35114 3.10194 1.3866C3.01621 1.42206 2.93831 1.47408 2.87271 1.53967C2.8071 1.60527 2.75508 1.68315 2.71961 1.76887C2.68415 1.85459 2.66593 1.94647 2.66602 2.03923V21.7935C2.66602 21.8862 2.68431 21.978 2.71981 22.0636C2.75532 22.1493 2.80736 22.2271 2.87295 22.2926C2.93855 22.3581 3.01641 22.4101 3.1021 22.4455C3.18778 22.4809 3.27961 22.4991 3.37233 22.499H12.5447C12.6374 22.499 12.7291 22.4808 12.8147 22.4453C12.9004 22.4099 12.9781 22.3579 13.0437 22.2924C13.1092 22.2269 13.1612 22.1491 13.1966 22.0635C13.2321 21.9779 13.2503 21.8861 13.2503 21.7935C13.2503 21.7008 13.2321 21.6091 13.1966 21.5235C13.1612 21.4379 13.1092 21.3601 13.0437 21.2946C12.9781 21.2291 12.9004 21.1771 12.8147 21.1416C12.7291 21.1062 12.6374 21.0879 12.5447 21.0879H4.07795V2.74476H16.7798V14.7388C16.7796 14.9256 16.8535 15.1048 16.9853 15.2372C17.117 15.3696 17.2959 15.4443 17.4827 15.4451C17.5754 15.4451 17.6672 15.4268 17.7529 15.3913C17.8385 15.3558 17.9163 15.3038 17.9819 15.2382C18.0474 15.1726 18.0994 15.0947 18.1348 15.009C18.1702 14.9234 18.1884 14.8315 18.1883 14.7388V2.03923C18.1884 1.94652 18.1702 1.85471 18.1348 1.76903C18.0993 1.68336 18.0474 1.6055 17.9819 1.53992C17.9163 1.47433 17.8385 1.4223 17.7529 1.3868C17.6672 1.3513 17.5754 1.33302 17.4827 1.33301H3.37233ZM6.17621 4.86136C5.99219 4.86604 5.81728 4.94243 5.6888 5.07424C5.56032 5.20605 5.48844 5.38284 5.4885 5.5669C5.4885 5.65955 5.50675 5.75129 5.54221 5.83689C5.57767 5.92249 5.62965 6.00027 5.69517 6.06579C5.76069 6.1313 5.83848 6.18327 5.92409 6.21873C6.0097 6.25418 6.10146 6.27243 6.19412 6.27243C6.38126 6.27243 6.56074 6.1981 6.69307 6.06579C6.8254 5.93347 6.89974 5.75402 6.89974 5.5669C6.89974 5.37978 6.8254 5.20032 6.69307 5.06801C6.56074 4.9357 6.38126 4.86136 6.19412 4.86136C6.18815 4.86129 6.18218 4.86129 6.17621 4.86136ZM8.3103 4.86205C8.21757 4.86196 8.12574 4.88014 8.04005 4.91556C7.95436 4.95098 7.8765 5.00293 7.8109 5.06845C7.7453 5.13398 7.69327 5.21179 7.65776 5.29743C7.62226 5.38307 7.60399 5.47488 7.60399 5.56759C7.60399 5.6603 7.62226 5.7521 7.65776 5.83774C7.69327 5.92339 7.7453 6.00119 7.8109 6.06672C7.8765 6.13224 7.95436 6.1842 8.04005 6.21961C8.12574 6.25503 8.21757 6.27321 8.3103 6.27312H14.6623C14.7549 6.27312 14.8467 6.25487 14.9323 6.21941C15.0179 6.18396 15.0957 6.13199 15.1612 6.06647C15.2267 6.00096 15.2787 5.92318 15.3142 5.83758C15.3496 5.75198 15.3679 5.66024 15.3679 5.56759C15.3679 5.47493 15.3496 5.38319 15.3142 5.29759C15.2787 5.21199 15.2267 5.13421 15.1612 5.0687C15.0957 5.00318 15.0179 4.95121 14.9323 4.91576C14.8467 4.8803 14.7549 4.86205 14.6623 4.86205H8.3103ZM8.3103 8.38765C8.21757 8.38756 8.12574 8.40574 8.04005 8.44116C7.95436 8.47658 7.8765 8.52853 7.8109 8.59405C7.7453 8.65958 7.69327 8.73739 7.65776 8.82303C7.62226 8.90868 7.60399 9.00048 7.60399 9.09319C7.60389 9.18595 7.6221 9.27783 7.65756 9.36355C7.69303 9.44928 7.74505 9.52717 7.81066 9.59276C7.87626 9.65836 7.95416 9.71038 8.03989 9.74584C8.12563 9.78129 8.21752 9.7995 8.3103 9.79941H14.6623C14.755 9.79941 14.8468 9.78114 14.9325 9.74564C15.0181 9.71014 15.0959 9.65811 15.1615 9.59252C15.227 9.52693 15.279 9.44907 15.3144 9.36339C15.3498 9.27772 15.368 9.1859 15.3679 9.09319C15.3679 9.00053 15.3496 8.90879 15.3142 8.82319C15.2787 8.73759 15.2267 8.65981 15.1612 8.5943C15.0957 8.52878 15.0179 8.47681 14.9323 8.44136C14.8467 8.4059 14.7549 8.38765 14.6623 8.38765H8.3103ZM6.17621 8.38903C5.99218 8.3937 5.81728 8.47009 5.6888 8.6019C5.56032 8.73371 5.48844 8.91051 5.4885 9.09457C5.4885 9.18722 5.50675 9.27896 5.54221 9.36456C5.57767 9.45016 5.62965 9.52794 5.69517 9.59345C5.76069 9.65897 5.83848 9.71094 5.92409 9.74639C6.0097 9.78185 6.10146 9.8001 6.19412 9.8001C6.38126 9.8001 6.56074 9.72577 6.69307 9.59345C6.8254 9.46114 6.89974 9.28168 6.89974 9.09457C6.89974 8.90745 6.8254 8.72799 6.69307 8.59568C6.56074 8.46336 6.38126 8.38903 6.19412 8.38903C6.18815 8.38896 6.18218 8.38895 6.17621 8.38903ZM8.3103 11.916C8.21752 11.9159 8.12563 11.9341 8.03989 11.9696C7.95416 12.005 7.87626 12.0571 7.81066 12.1227C7.74505 12.1883 7.69303 12.2661 7.65756 12.3519C7.6221 12.4376 7.60389 12.5295 7.60399 12.6222C7.60399 12.7149 7.62226 12.8067 7.65776 12.8924C7.69327 12.978 7.7453 13.0558 7.8109 13.1214C7.8765 13.1869 7.95436 13.2388 8.04005 13.2743C8.12574 13.3097 8.21757 13.3279 8.3103 13.3278H14.6623C14.7549 13.3278 14.8467 13.3095 14.9323 13.2741C15.0179 13.2386 15.0957 13.1866 15.1612 13.1211C15.2267 13.0556 15.2787 12.9778 15.3142 12.8922C15.3496 12.8066 15.3679 12.7149 15.3679 12.6222C15.368 12.5295 15.3498 12.4377 15.3144 12.352C15.279 12.2663 15.227 12.1885 15.1615 12.1229C15.0959 12.0573 15.0181 12.0053 14.9325 11.9698C14.8468 11.9343 14.755 11.916 14.6623 11.916H8.3103ZM6.17621 11.9167C5.99219 11.9214 5.81728 11.9978 5.6888 12.1296C5.56032 12.2614 5.48844 12.4382 5.4885 12.6223C5.4885 12.7149 5.50675 12.8066 5.54221 12.8922C5.57767 12.9778 5.62965 13.0556 5.69517 13.1211C5.76069 13.1867 5.83848 13.2386 5.92409 13.2741C6.0097 13.3095 6.10146 13.3278 6.19412 13.3278C6.38126 13.3278 6.56074 13.2535 6.69307 13.1211C6.8254 12.9888 6.89974 12.8094 6.89974 12.6223C6.89974 12.4351 6.8254 12.2557 6.69307 12.1234C6.56074 11.991 6.38126 11.9167 6.19412 11.9167C6.18815 11.9166 6.18218 11.9166 6.17621 11.9167ZM11.8391 14.7389C11.7464 14.7388 11.6546 14.7571 11.5689 14.7926C11.4832 14.8281 11.4054 14.8802 11.3399 14.9457C11.2744 15.0113 11.2224 15.0892 11.187 15.1749C11.1516 15.2605 11.1334 15.3524 11.1335 15.4451C11.1335 15.5377 11.1517 15.6295 11.1872 15.7151C11.2226 15.8007 11.2746 15.8784 11.3401 15.944C11.4057 16.0095 11.4835 16.0614 11.5691 16.0969C11.6547 16.1324 11.7464 16.1506 11.8391 16.1506H12.6984L13.9773 21.2595C14.0156 21.4121 14.1038 21.5476 14.2279 21.6443C14.352 21.7411 14.5049 21.7936 14.6623 21.7935H19.6002C19.7674 21.794 19.9294 21.7351 20.0572 21.6274C20.1851 21.5196 20.2705 21.37 20.2983 21.2051L21.0011 16.9705C21.0177 16.8696 21.0121 16.7663 20.9848 16.6678C20.9575 16.5693 20.9092 16.4778 20.843 16.3999C20.7769 16.3219 20.6946 16.2592 20.6019 16.2162C20.5091 16.1731 20.4081 16.1507 20.3059 16.1506H14.1544L13.9353 15.2728C13.897 15.1202 13.8088 14.9847 13.6847 14.888C13.5606 14.7912 13.4077 14.7387 13.2503 14.7388L11.8391 14.7389ZM14.5086 17.5617H19.4728L19.0035 20.3824H15.2115L14.5086 17.5617ZM14.9965 22.4997C14.8124 22.5044 14.6375 22.5808 14.5091 22.7126C14.3806 22.8444 14.3087 23.0212 14.3088 23.2052C14.3088 23.3924 14.3831 23.5718 14.5154 23.7041C14.6478 23.8365 14.8272 23.9108 15.0144 23.9108C15.2015 23.9108 15.381 23.8365 15.5133 23.7041C15.6457 23.5718 15.72 23.3924 15.72 23.2052C15.72 23.0181 15.6457 22.8387 15.5133 22.7064C15.381 22.5741 15.2015 22.4997 15.0144 22.4997C15.0084 22.4996 15.0024 22.4996 14.9965 22.4997ZM19.2302 22.4997C19.0462 22.5044 18.8713 22.5808 18.7428 22.7126C18.6143 22.8444 18.5424 23.0212 18.5425 23.2052C18.5425 23.3924 18.6168 23.5718 18.7492 23.7041C18.8815 23.8365 19.061 23.9108 19.2481 23.9108C19.4353 23.9108 19.6147 23.8365 19.7471 23.7041C19.8794 23.5718 19.9537 23.3924 19.9537 23.2052C19.9537 23.0181 19.8794 22.8387 19.7471 22.7064C19.6147 22.5741 19.4353 22.4997 19.2481 22.4997C19.2421 22.4996 19.2362 22.4996 19.2302 22.4997Z" fill="black"/>
</g>
<defs>
<clipPath id="clip0_2037_1926">
<rect width="24" height="24" fill="white"/>
</clipPath>
</defs>
</svg>
