<svg id="Layer_1" enable-background="new 0 0 258.1 512" height="512" viewBox="0 0 258.1 512" width="512" xmlns="http://www.w3.org/2000/svg"><path d="m258.1 279.6c0-.1 0-.1 0 0v-154.6c0-8.9-2.5-17.6-7.3-25.2l-7.1-11.2c5.4-3.9 8.9-10.3 8.9-17.4 0-11.9-9.7-21.6-21.6-21.6h-132.5v-23.3c0-7-2.7-13.6-7.7-18.6-5-5-11.6-7.7-18.6-7.7-14.5 0-26.3 11.8-26.3 26.3v23.1h-18.8c-11.9 0-21.6 9.7-21.6 21.6 0 7.2 3.5 13.5 8.9 17.4l-7.1 11.3c-4.8 7.6-7.3 16.3-7.3 25.2v311.6c0 8.9 2.5 17.6 7.3 25.2l7.1 11.2c-5.4 3.9-8.9 10.3-8.9 17.4 0 11.9 9.7 21.6 21.6 21.6h203.9c11.9 0 21.6-9.7 21.6-21.6 0-7.1-3.5-13.5-8.9-17.4l7.1-11.2c4.8-7.5 7.3-16.3 7.3-25.2v-13.9zm-229.2 189.2-9.3-14.8c-3.3-5.2-5-11.2-5-17.4v-184.5c42.1 6.8 80.6 23.7 109.1 48 22.6 19.3 42.7 42.4 62.2 64.7 18 20.7 36.7 42.1 57.6 60.9v10.7c0 6.2-1.7 12.2-5 17.4l-9.3 14.8h-200.3zm214.6-62.9c-16.5-16-31.8-33.5-46.7-50.6-19.8-22.7-40.2-46.2-63.7-66.2-31.5-26.9-72.4-44.7-118.6-51.7v-42c18.4 2.9 37.1 7.9 56.9 15.3 19.6 7.3 37.2 20.3 54.3 32.8 1.5 1.1 3 2.2 4.5 3.3 35.7 26.2 75.2 40.3 112.3 40.3h1zm0-133.4c-34.2.3-71.1-12.9-104.7-37.5-1.5-1.1-3-2.2-4.5-3.3-17.8-13.1-36.2-26.6-57.8-34.7-21.5-8-41.8-13.4-62-16.4v-55.8c0-6.2 1.7-12.2 5-17.4l9.3-14.8h200.2l9.3 14.8c3.3 5.2 5 11.2 5 17.4v147.7zm-183.1-246.2c0-6.5 5.3-11.8 11.8-11.8 3.1 0 6.1 1.2 8.3 3.4s3.4 5.2 3.4 8.3v23.1h-23.5zm-33.3 37.7h26 .1 38.1.1 139.6c3.9 0 7 3.2 7 7 0 3.9-3.2 7-7 7h-203.9c-3.9 0-7-3.2-7-7s3.1-7 7-7zm203.9 433.4h-203.9c-3.9 0-7-3.2-7-7 0-3.9 3.2-7 7-7h203.9c3.9 0 7 3.2 7 7 0 3.9-3.1 7-7 7z"/></svg>