<svg id="s" viewBox="0 0 48 48" xmlns="http://www.w3.org/2000/svg"><path d="m20.09 7.77c-.16-.02-.3-.01-.44 0-.31.04-.66.2-1.01.49-.22.19-.45.44-.68.73-.5-.26-1.05-.51-1.58-.7-.6-.22-1.19-.36-1.66-.39-.48-.03-.88.05-1.17.19-.3.15-.6.43-.85.83-.24.4-.45.95-.6 1.55-.21.82-.31 1.76-.3 2.5-.29.05-.55.14-.8.25-.73.35-1.31.99-1.73 1.9-1.87.68-3.29 1.51-4.15 2.39-.75.77-1.12 1.61-1.12 2.46 0 6.31 2.13 11.3 5.68 14.72 1.28 1.23 2.74 2.26 4.36 3.07l.99 3.48c.05.16.13.31.25.43 0 0 2.16 2.29 8.71 2.29s8.71-2.29 8.71-2.29c.12-.12.21-.27.25-.43l.99-3.48c1.62-.81 3.09-1.84 4.36-3.07 3.55-3.42 5.68-8.41 5.68-14.72 0-.83-.35-1.64-1.05-2.38-.78-.83-2.05-1.62-3.73-2.28-.03-.05-.05-.09-.08-.14-.23-.36-.59-.67-1-.89-.08-.33-.27-.66-.62-.95-.67-.58-2.14-1.08-3.38-1.27 0-.07 0-.14-.02-.21-.09-.88-.43-2-.81-2.73-.23-.44-.49-.76-.72-.93-.39-.29-1.06-.39-1.82-.16-.52.15-1.1.44-1.55.68-.26-.33-.57-.55-.91-.66-.22-.07-.42-.24-.62-.39-.23-.17-.46-.33-.68-.44-.1-.05-.2-.1-.31-.13-.21-.46-.55-1.11-1.02-1.68-.67-.8-1.58-1.42-2.69-1.42-1.23 0-2.06.88-2.5 2.06-.21.56-.33 1.19-.4 1.71zm11.5 31.02c-2.31.8-4.86 1.21-7.59 1.21s-5.28-.42-7.59-1.21c.23.81.47 1.64.47 1.64.56.4 2.6 1.58 7.12 1.58s6.56-1.18 7.12-1.58zm-25.35-15.41c.59 4.12 2.3 7.46 4.83 9.9 3.2 3.08 7.72 4.72 12.93 4.72s9.73-1.64 12.93-4.72c2.54-2.44 4.24-5.79 4.83-9.9-.12.08-.24.16-.37.23-3.26 1.99-9.83 3.39-17.4 3.39s-14.14-1.4-17.4-3.39c-.13-.08-.25-.16-.37-.23zm2.82 4.96c1.17 3.26 3.41 5.95 7.57 7.59.51.2 1.1-.05 1.3-.56s-.05-1.1-.56-1.3c-3.52-1.39-5.43-3.65-6.43-6.41-.19-.52-.76-.79-1.28-.6s-.79.76-.6 1.28zm19.73-14.86c-.39.18-.96.33-1.62.41-1.58.19-3.71.1-3.71.1h-.01c-.6.47-1.4.86-2.06 1.04-.28.85-1.28 2.96-4.39 2.96-.52 0-1.1-.34-1.53-.99-.29-.44-.53-1.04-.7-1.51-.37.02-.72 0-1.03-.05-.5-.08-.91-.26-1.21-.51-.25-.02-.46.02-.65.11-.44.21-.71.68-.93 1.29-.05.14-.13.27-.24.37-.77.76-1.13 1.71-.74 3 .15.49-.09 1.01-.56 1.21-.34.15-.45.42-.48.73-.03.29 0 .61.03.93.04.02.07.03.11.05.99.43 2.17.81 3.48 1.14-.03-.17-.05-.34-.05-.51 0-1.52 1.23-2.75 2.75-2.75s2.75 1.23 2.75 2.75c0 .51-.14.99-.38 1.4 1.99.23 4.14.35 6.38.35 2.11 0 4.13-.11 6.02-.31-.33-.48-.52-1.06-.52-1.69 0-1.66 1.34-3 3-3s3 1.34 3 3c0 .27-.04.53-.1.77 1.34-.33 2.53-.72 3.54-1.15.05-.02.1-.04.15-.07.13-.43.18-.81.02-1.14-.1-.21-.3-.38-.58-.54-.45-.24-.65-.78-.45-1.26.16-.38.23-.72.13-1.03-.09-.29-.34-.52-.71-.73-.3-.18-.49-.5-.5-.85 0-.31.14-.61.38-.8-.1-.09-.26-.21-.38-.21-.4 0-.77-.24-.92-.62-.08-.2-.1-.42-.05-.62-.14-.08-.31-.19-.46-.25-.71-.3-1.63-.51-2.29-.52-.23.1-.52.17-.87.18-1.12.02-3.17-.56-3.62-.69zm3.71 8.52c.55 0 1 .45 1 1s-.45 1-1 1-1-.45-1-1 .45-1 1-1zm-17.25.5c.41 0 .75.34.75.75s-.34.75-.75.75-.75-.34-.75-.75.34-.75.75-.75zm10.04.21 1 1c.39.39 1.02.39 1.42 0 .39-.39.39-1.02 0-1.42l-1-1c-.39-.39-1.02-.39-1.42 0-.39.39-.39 1.02 0 1.42zm-3.29-5.71c-1.66 0-3 1.34-3 3s1.34 3 3 3 3-1.34 3-3-1.34-3-3-3zm-14.17.99c-.34.2-.64.4-.91.61-.55.45-.92.89-.92 1.4 0 .42.26.79.66 1.17.09.08.18.17.29.25.08-.75.35-1.4.92-1.89-.1-.56-.1-1.07-.03-1.55zm32.27-.04s.01.03.01.04c.16.49.18 1.03.06 1.61.33.29.57.61.74.95.12.25.2.51.25.79.06-.06.13-.11.18-.17.4-.38.66-.75.66-1.17 0-.48-.34-.91-.84-1.34-.3-.25-.65-.49-1.06-.72zm-18.1 1.06c.55 0 1 .45 1 1s-.45 1-1 1-1-.45-1-1 .45-1 1-1zm7-4.5c-1.66 0-3 1.34-3 3s1.34 3 3 3 3-1.34 3-3-1.34-3-3-3zm-16.71 1.79-1 1c-.39.39-.39 1.02 0 1.42.39.39 1.02.39 1.42 0l1-1c.39-.39.39-1.02 0-1.42-.39-.39-1.02-.39-1.42 0zm16.71.21c.55 0 1 .45 1 1s-.45 1-1 1-1-.45-1-1 .45-1 1-1zm4.79-.71-.5.5c-.39.39-.39 1.02 0 1.42.39.39 1.02.39 1.42 0l.5-.5c.39-.39.39-1.02 0-1.42-.39-.39-1.02-.39-1.42 0zm-10.29.21c0 .27.11.52.29.71.19.19.44.29.71.29s.52-.11.71-.29c.19-.19.29-.44.29-.71v-.5c0-.27-.11-.52-.29-.71-.19-.19-.44-.29-.71-.29s-.52.11-.71.29c-.19.19-.29.44-.29.71zm-5.61-1.37c-.15.11-.3.2-.44.27-.19.09-.42.18-.68.26.07.17.14.34.23.51.06.1.15.24.21.33 1.02-.06 1.61-.53 1.93-.96-.34-.06-.67-.15-.98-.26-.1-.04-.19-.09-.27-.15zm18.38-.31.02-.02s-.01.02-.02.02zm-21.81-4.4c.07 0 .18 0 .25.01.3.04.64.14 1 .26.69.24 1.41.6 1.94.94.18.12.34.21.43.3-.03.08-.08.23-.14.32-.33.55-.92 1.11-1.39 1.34-.49.24-1.42.43-2.18.4-.17 0-.4-.06-.52-.09-.02-.11-.05-.3-.05-.45-.02-.58.07-1.33.24-1.99.08-.34.19-.65.31-.89.03-.05.08-.12.11-.17zm5 3.15c.46.09.92.13 1.23.08.46-.07 1.14-.39 1.58-.77.07-.06.16-.17.21-.23-.05-.1-.15-.22-.26-.37-.35-.46-.85-.99-1.37-1.41-.28-.23-.72-.47-.91-.57-.08.08-.21.21-.34.37.1.11.19.22.24.32.3.49.33 1.13.04 1.82-.1.25-.25.51-.43.77zm10.45-1.35c.36.1.84.22 1.31.31.27.05.63.09.9.11-.01-.15-.03-.33-.05-.47-.1-.53-.28-1.1-.49-1.53-.03-.07-.08-.14-.12-.21-.13.03-.31.08-.44.13-.4.16-.81.38-1.1.54.04.38.04.76 0 1.11zm-5.41.3c.69 0 1.64-.02 2.43-.11.35-.04.8-.16.93-.2.02-.05.05-.13.06-.19.05-.23.04-.5 0-.76-.03-.21-.08-.42-.16-.6-.04-.08-.12-.2-.14-.24-.36-.13-.72-.37-1.06-.61-.14-.1-.37-.25-.47-.31-.48.14-.88.51-1.2.88-.35.4-.61.82-.78 1.12.2.33.32.63.37.85.01.05.02.11.02.16zm.17-4.54c-.14-.25-.31-.53-.52-.78-.3-.35-.66-.7-1.15-.7-.15 0-.25.09-.34.2-.12.16-.22.35-.29.56-.27.71-.34 1.55-.36 1.97.04.03.08.06.12.1.22.18.43.37.64.57.18-.26.39-.55.63-.82.36-.42.8-.8 1.28-1.1z" fill-rule="evenodd"/></svg>