<svg id="_2-coffee" height="512" viewBox="0 0 64 64" width="512" xmlns="http://www.w3.org/2000/svg"><path d="m57 9c0-1.654-1.346-3-3-3h-1.28l-1.316-3.949c-.409-1.227-1.553-2.051-2.846-2.051h-33.117c-1.293 0-2.437.824-2.846 2.051l-1.316 3.949h-1.28c-1.654 0-3 1.346-3 3 0 1.25.769 2.321 1.858 2.771l-.844 5.065c-.049.29.033.586.224.811.189.225.469.354.763.354h2.063l.522 8h-1.585c-.278 0-.545.116-.733.32-.189.205-.285.479-.264.757l2 26c.04.521.475.923.997.923h1.411l.469 7.194c.103 1.573 1.418 2.806 2.994 2.806h30.252c1.576 0 2.892-1.232 2.994-2.805l.469-7.195h1.411c.522 0 .957-.402.997-.923l2-26c.021-.278-.074-.552-.264-.757-.188-.204-.455-.32-.733-.32h-1.585l.522-8h2.063c.294 0 .573-.129.763-.354s.272-.521.224-.811l-.844-5.064c1.089-.45 1.858-1.522 1.858-2.771zm-42.508-6.316c.137-.409.519-.684.949-.684h33.118c.431 0 .812.274.949.684l1.105 3.316h-37.226zm-4.492 5.316h44c.552 0 1 .448 1 1s-.448 1-1 1h-44c-.552 0-1-.448-1-1s.448-1 1-1zm38.124 53.065c-.034.523-.473.935-.998.935h-30.252c-.525 0-.964-.411-.998-.936l-.461-7.064h33.17zm2.95-9.065h-38.148l-1.846-24h41.84zm-.664-26h-36.821l-.522-8h37.866l-.522 8zm-40.229-10 .666-4h42.306l.666 4z"/><path d="m28.922 48.252c.62.226 1.26.333 1.904.333 3.126 0 6.345-2.53 7.751-6.396.805-2.209.912-4.535.301-6.549-.642-2.116-1.991-3.644-3.8-4.302-1.81-.66-3.825-.355-5.677.853-1.762 1.149-3.175 3-3.979 5.21-1.698 4.663-.128 9.531 3.499 10.852zm8.043-12.031c.485 1.602.391 3.479-.267 5.284-1.079 2.964-3.399 4.963-5.628 5.079 1.092-1.614 2.545-4.384 1.902-7.026-.548-2.247 1.18-4.89 2.046-6.035.893.54 1.575 1.471 1.948 2.697zm-9.663 1.863c.657-1.806 1.791-3.304 3.192-4.219.802-.523 1.629-.8 2.427-.846-1.091 1.616-2.535 4.377-1.893 7.012.548 2.247-1.181 4.89-2.046 6.035-2.122-1.276-2.888-4.665-1.681-7.983z"/></svg>