<svg id="Capa_1" enable-background="new 0 0 512 512" height="512" viewBox="0 0 512 512" width="512" xmlns="http://www.w3.org/2000/svg"><g><path d="m497 98.159h-47.771v-53.621h42.776c8.284 0 15-6.716 15-15s-6.716-15-15-15h-57.776c-8.284 0-15 6.716-15 15v68.621h-138.534c-8.284 0-15 6.716-15 15v333.937c0 2.856.816 5.654 2.352 8.063l22.545 35.366c2.754 4.32 7.524 6.937 12.648 6.937h171.215c5.125 0 9.894-2.616 12.648-6.937l22.545-35.366c1.536-2.409 2.352-5.207 2.352-8.063v-333.937c0-8.284-6.716-15-15-15zm-15 30v90.483h-32.771v-90.483zm-62.771 0v90.483h-123.534v-90.483zm47 339.303h-154.763l-15.771-24.74v-194.079h186.305v194.079z"/><path d="m211.733 98.159h-118.962v-68.621c0-8.284-6.716-15-15-15h-57.776c-8.284 0-15 6.716-15 15s6.716 15 15 15h42.776v53.621h-47.771c-8.284 0-15 6.716-15 15v173.071c0 57.426 42.921 105.01 98.367 112.372v68.859h-41.947c-8.284 0-15 6.716-15 15s6.716 15 15 15h113.892c8.284 0 15-6.716 15-15s-6.716-15-15-15h-41.946v-68.859c55.445-7.362 98.366-54.946 98.366-112.372v-173.071c.001-8.284-6.715-15-14.999-15zm-15 30v48.509h-103.962v-48.509zm-133.962 0v48.509h-32.771v-48.509zm50.596 241.438c-45.969 0-83.367-37.398-83.367-83.367v-79.563h166.733v79.563c0 45.969-37.398 83.367-83.366 83.367z"/><path d="m340.71 404.546c-7.846 0-15.363 6.899-15 15 .364 8.127 6.591 15 15 15 7.846 0 15.363-6.899 15-15-.364-8.127-6.591-15-15-15z"/><path d="m428.858 394.546c-7.846 0-15.363 6.899-15 15 .364 8.127 6.591 15 15 15 7.846 0 15.363-6.899 15-15-.364-8.127-6.59-15-15-15z"/><path d="m365.92 314.583c-7.846 0-15.363 6.899-15 15 .364 8.127 6.591 15 15 15 7.846 0 15.363-6.899 15-15-.364-8.127-6.59-15-15-15z"/><path d="m436.985 281.81c-7.846 0-15.363 6.899-15 15 .364 8.127 6.591 15 15 15 7.846 0 15.363-6.899 15-15-.364-8.127-6.591-15-15-15z"/></g></svg>