<svg id="Capa_1" enable-background="new 0 0 512 512" height="512" viewBox="0 0 512 512" width="512" xmlns="http://www.w3.org/2000/svg"><g><path d="m422.118 378.186h30.066v30h-30.066z"/><path d="m345.449 378.186h30.066v30h-30.066z"/><path d="m383.784 324.186h30.066v30h-30.066z"/><path d="m485.507 255.527c10.002-15.7 15.441-34.12 15.441-52.892 0-54.197-44.022-98.29-98.133-98.29-2.661 0-5.318.109-7.961.322-15.068-36.093-50.574-60.322-90.53-60.322-39.95 0-75.457 24.226-90.537 60.322-2.641-.213-5.296-.322-7.955-.322-33.573 0-64.616 17.156-82.598 45.202-38.715 9.61-68.688 31.516-89.144 65.205-22.94 37.776-34.09 89.41-34.09 157.853v34.17c0 16.259 6.323 31.546 17.804 43.046s26.744 17.833 42.978 17.833h396.305c30.279 0 54.912-24.673 54.912-55v-54.77c.001-35.996-9.134-71.17-26.492-102.357zm-14.512-52.892c0 8.534-1.535 16.778-4.492 24.488-16.947-21.364-37.954-39.404-61.711-52.807-2.117-1.195-4.273-2.342-6.443-3.468 2.723-9.083 4.106-18.522 4.106-28.213 0-2.764-.127-5.523-.357-8.27.239-.002.477-.019.716-.019 37.596-.001 68.181 30.634 68.181 68.289zm-232.614-77.481c7.886-29.916 35.002-50.809 65.942-50.809 30.943 0 58.053 20.892 65.929 50.799 1.495 5.686 2.252 11.571 2.252 17.491 0 5.557-.67 10.986-1.955 16.254-12.815-4.44-26.037-7.629-39.473-9.498-17.481-2.459-35.725-2.69-53.444-.649-13.576 1.554-26.943 4.439-39.914 8.593-1.049-4.788-1.587-9.699-1.587-14.701 0-5.919.758-11.804 2.25-17.48zm-92.423 44.777c11.983-21.95 34.925-35.586 59.873-35.586.236 0 .47.017.706.019-.23 2.747-.357 5.506-.357 8.27 0 8.883 1.167 17.577 3.47 25.987-26.557 12.973-50.011 31.367-69.003 54.096-1.973-6.441-2.997-13.188-2.997-20.084 0-11.439 2.872-22.747 8.308-32.702zm-106.974 258.677c-5.825-5.834-9.032-13.588-9.032-21.833v-34.17c0-61.914 10.002-109.779 29.727-142.264 12.427-20.466 28.741-35.152 49.46-44.425-.947 5.507-1.442 11.102-1.442 16.719 0 17.25 4.425 33.867 12.848 48.627-18.924 32.193-28.904 68.792-28.933 106.473v.15 48.89c0 17.027-13.83 30.88-30.83 30.88-8.232 0-15.973-3.213-21.798-9.047zm443.064-15.953c0 13.785-11.197 25-24.96 25h-343.953c5.348-9.06 8.43-19.614 8.43-30.88v-48.89-.138c.027-35.121 10.124-69.146 29.235-98.449.95-1.469 2.001-3.032 3.213-4.774 20.061-28.722 47.728-50.842 80.016-63.971 15.032-6.116 30.845-10.154 47.014-12.005 15.233-1.755 30.871-1.557 45.889.556 16.024 2.229 31.679 6.631 46.538 13.087 5.665 2.457 11.256 5.237 16.623 8.264 25.992 14.664 48.176 35.779 64.153 61.062l.225.361c.115.184.231.367.34.551l.154.253c17.717 28.508 27.082 61.428 27.082 95.203v54.77z"/></g></svg>