<svg id="Capa_1" enable-background="new 0 0 512 512" height="512" viewBox="0 0 512 512" width="512" xmlns="http://www.w3.org/2000/svg"><g><path d="m471.862 411v-129.295c0-43.692-35.546-79.239-79.238-79.239h-352.486v208.534h-40.138v62.213l38.787 38.787h434.426l38.787-38.787v-62.213zm-139.049-178.534h29.668v58.337c0 7.567-6.157 13.724-13.725 13.724s-13.725-6.157-13.725-13.724v-44.613c.001-4.793-.785-9.404-2.218-13.724zm-41.504 0c7.567 0 13.724 6.157 13.724 13.724v44.613c0 24.109 19.615 43.724 43.725 43.724s43.725-19.615 43.725-43.724v-58.337h.143c27.15 0 49.238 22.088 49.238 49.239v129.295h-301.33v-178.534zm-221.171 0h40.396v178.534h-40.396zm411.862 228.321-21.213 21.213h-409.574l-21.213-21.213v-19.787h452z"/><path d="m279.342 121.461h157.627c39.883 0 72.33-32.447 72.33-72.33v-49.131h-509.299v90h222.673zm199.957-72.33c0 23.341-18.989 42.33-42.33 42.33h-149.858l-56.669-31.461h-38.961v-30h287.817v19.131zm-449.299-19.131h131.481v30h-131.481z"/></g></svg>