<svg id="Capa_1" enable-background="new 0 0 512 512" height="512" viewBox="0 0 512 512" width="512" xmlns="http://www.w3.org/2000/svg"><g><path d="m414.778 383.208 62.654-62.654v-134.738h-91.53l59.258-81.184h36.484v-30h-51.729l-81.156 111.184h-315.679v134.737l62.654 62.654h-95.734v61.926l37.075 37.074h437.85l37.075-37.074v-61.926h-97.222zm32.653-167.392v34.072h-384.351v-34.072zm-384.351 92.311v-28.239h384.352v28.239l-75.08 75.08h-234.192zm418.92 124.58-19.501 19.501h-412.998l-19.501-19.501v-19.499h452z"/><path d="m104.283 93.029h107.948c15.453 0 28.024 12.571 28.024 28.023v6.216h30v-6.216c0-31.994-26.029-58.023-58.024-58.023h-107.948c-15.453 0-28.024-12.571-28.024-28.024v-5.212h-30v5.212c0 31.995 26.03 58.024 58.024 58.024z"/></g></svg>