<svg id="Layer_1" enable-background="new 0 0 64 64" viewBox="0 0 64 64" xmlns="http://www.w3.org/2000/svg"><path d="m34.3291016 2.9667969c-.6137696-.6142578-1.4624024-.9667969-2.3291016-.9667969-1.8168945 0-3.2949219 1.4780273-3.2949219 3.2949219v9.8300781h-14.9414062c-.2856445 0-.5571289.1220703-.7470703.3349609-.1894531.2133789-.2792969.4975586-.2460938.78125l.7299805 6.2495117c0 .0001221.0001221.0002441.0001221.0003662.000061.0003662-.0001831.0007324-.0001221.0010986l.3320312 2.8071289c.019043.159668.0761719.3129883.1674805.4462891l2.1508789 3.1503906 3.6669922 28.0043945c.0079956.060791.0365601.1124268.0547485.1690063.0120239.0362549.0187988.072998.034729.1072388.045166.0999756.1060181.1871338.1793213.2659912.0084839.0089722.0139771.0199585.0228271.0286255.1820068.1818848.4259644.2992554.7000732.2992554h1.6210938l1.0229492 3.5092773c.1245118.426758.5156251.720215.959961.720215h15.1728516c.4443359 0 .8354492-.293457.9599609-.7202148l1.0229492-3.5092773h1.6210938c.2741089 0 .5181274-.1173706.7001343-.2992554.008728-.008606.0142822-.0194702.0227051-.0284424.0734253-.0788574.1343994-.1662598.1795044-.2662964.0158081-.0341187.022644-.0708008.0346069-.1068726.0182495-.0567017.0467529-.1083984.0547485-.1692505l3.6669922-28.0043945 2.1508789-3.1503906c.0913086-.1333008.1484375-.2866211.1674805-.4462891l.3320312-2.8071289c.000061-.0003662-.0001831-.0007324-.0001221-.0010986 0-.0001221.0001221-.0002441.0001221-.0003662l.7299805-6.2495117c.0332031-.2836914-.0566406-.5678711-.2460938-.78125-.1899414-.2128907-.4614257-.334961-.7470703-.334961h-14.9414062v-9.8300781c0-.8666992-.3525391-1.7153321-.9658203-2.328125zm-3.6240235 2.328125c0-.7138672.5810547-1.2949219 1.2949219-1.2949219.3398438 0 .6728516.1386719.9150391.3808594.2412109.2412109.3798828.5742188.3798828.9140625v9.8300781h-2.5898438zm-5.5415039 54.7050781-.6530151-2.2402344h14.9788818l-.6530151 2.2402344zm23.0463867-35.1796875-2.1469727 3.1450195c-.0888672.1298828-.1455078.2783203-.1660156.434082l-3.5825806 27.3603516h-20.6287841l-3.5825806-27.3603516c-.0205078-.1557617-.0771484-.3041992-.1660156-.434082l-2.1469727-3.1450195-.1708984-1.4458008h32.7617188zm.40625-3.4458008h-33.2324218l-.4965821-4.2495117h14.8178711 4.5898438 14.8178711z"/><path d="m25.5307617 37.1982422c.1875.1875.4418945.2929688.7070312.2929688s.5195312-.1054688.7070312-.2929688l3.4672852-3.4672852c.390625-.390625.390625-1.0234375 0-1.4140625l-3.4672852-3.4672852c-.375-.375-1.0390625-.375-1.4140625 0l-3.4667969 3.4672852c-.390625.390625-.390625 1.0234375 0 1.4140625zm.7070313-6.2275391 2.0532227 2.0532227-2.0532227 2.0532227-2.0527344-2.0532227z"/><path d="m29.0966797 47c0 2.2231445 1.809082 4.0322266 4.0322266 4.0322266s4.0322265-1.8090821 4.0322265-4.0322266-1.809082-4.0322266-4.0322266-4.0322266-4.0322265 1.8090821-4.0322265 4.0322266zm4.0322265-2.0322266c1.1206055 0 2.0322266.9116211 2.0322266 2.0322266s-.9116211 2.0322266-2.0322266 2.0322266-2.0322265-.9116211-2.0322265-2.0322266.9116211-2.0322266 2.0322265-2.0322266z"/><path d="m39.5805664 37.3549805c2.1879883 0 3.9677734-1.7797852 3.9677734-3.9677734s-1.7797852-3.9677734-3.9677734-3.9677734-3.9677734 1.7797852-3.9677734 3.9677734 1.7797851 3.9677734 3.9677734 3.9677734zm0-5.9355469c1.0849609 0 1.9677734.8828125 1.9677734 1.9677734s-.8828125 1.9677734-1.9677734 1.9677734-1.9677734-.8828124-1.9677734-1.9677734.8828125-1.9677734 1.9677734-1.9677734z"/><path d="m19.7397461 18.5400391c-.3701172-.3701172-1.0400391-.3701172-1.4101562 0-.1899414.1899414-.2998047.449707-.2998047.7099609 0 .0698242.0102539.1298828.0200195.199707.0102539.0600586.0297852.1201172.0600586.1801758.0200195.0600586.0600586.1201172.0898438.1699219.0400391.0600586.0800781.1098633.1298828.1601562.1801757.1796875.4404296.2900391.7001953.2900391.2700195 0 .5200195-.1103516.7099609-.2900391.1899414-.1899414.2900391-.4501953.2900391-.7099609 0-.1303711-.0200195-.2602539-.0698242-.3803711-.0600587-.1298828-.1303712-.2397461-.2202149-.3295898z"/><path d="m25.1298828 18.3295898c-.1201172.050293-.2299805.1201172-.3198242.2104492-.1904297.1899414-.2900391.449707-.2900391.7099609 0 .1298828.0200195.2597656.0698242.3798828s.1298828.2299805.2202148.3300781c.0898438.0898438.199707.159668.3198242.2099609.1298828.0498047.25.0800781.3901367.0800781.2597656 0 .5200195-.1103516.699707-.2900391.1000977-.1000977.1699219-.2099609.2202148-.3300781.0498047-.1201172.0800781-.25.0800781-.3798828 0-.2602539-.1103516-.5200195-.300293-.7099609-.2700193-.2700194-.7197263-.3603514-1.0898435-.2104491z"/><path d="m31.2900391 18.5400391c-.1801758.1899414-.2900391.449707-.2900391.7099609 0 .2597656.1098633.5200195.2900391.7099609.1899414.1796875.449707.2900391.7099609.2900391.2700195 0 .5200195-.1103516.7099609-.2900391.1796875-.1899414.2900391-.4501953.2900391-.7099609 0-.2602539-.1103516-.5200195-.2900391-.7099609-.3701171-.3701172-1.040039-.3701172-1.4199218 0z"/><path d="m38.0996094 20.1699219c.1201172.0498047.25.0800781.3803711.0800781.0698242 0 .1298828-.0102539.199707-.0200195.0600586-.0102539.1303711-.0302734.1899414-.0600586.0600586-.0200195.1201172-.050293.1704102-.090332.0498047-.0395508.0996093-.0795899.1499023-.119629.1899414-.1899414.2998047-.4501953.2998047-.7099609 0-.2602539-.1098633-.5200195-.2998047-.7099609-.050293-.0400391-.1000977-.090332-.1499023-.1201172-.050293-.0400391-.1103516-.0703125-.1704102-.090332-.0595703-.0297852-.1298828-.0498047-.1899414-.0595703-.1899414-.0400391-.3999023-.0200195-.5800781.0595703-.1196289.050293-.2299805.1201172-.3198242.2104492-.1899414.1899414-.2998047.449707-.2998047.7099609 0 .2597656.1098633.5200195.2998047.7099609.0898437.0898438.2001953.159668.3198242.209961z"/><path d="m44.2597656 19.9599609c.1899414.1796875.4399414.2900391.709961.2900391.2602539 0 .5200195-.1103516.7099609-.2900391.1801758-.1899414.2900391-.4501953.2900391-.7099609 0-.1303711-.0297852-.2602539-.0800781-.3803711-.0200195-.0595703-.0498047-.1196289-.0898438-.1796875-.0400391-.050293-.0800781-.1000977-.1201172-.1499023-.3798828-.3701172-1.0498047-.3701172-1.4199219 0-.0898438.0996094-.1601562.199707-.2099609.3295898-.0600586.1201172-.0800781.25-.0800781.3803711 0 .1298828.0200195.2597656.0800781.3798828.0498047.1201172.1201172.2299805.2099609.3300781z"/></svg>