<svg id="Layer_1" enable-background="new 0 0 64 64" viewBox="0 0 64 64" xmlns="http://www.w3.org/2000/svg"><path d="m30.8134766 22.6362305c-.8710938-1.0869141-2.1689453-1.7099609-3.5605469-1.7099609-2.2138062 0-4.1264648 1.6289673-4.4851074 3.7979126-.0013428.0062256-.0058594.0107422-.0070801.0170288-.0010376.005127-.0004883.0111084-.0015259.0162354-.0010986.0059814-.005249.010437-.0062866.0164795-.0380859.2285156-.0625.4707031-.0625.7119141 0 .0006104.0001221.0012817.0001221.0018921 0 .0005493-.0001221.0009766-.0001221.0015259 0 .4824829.0762329.9515381.2177124 1.394043.0010376.0031738.0012817.0065918.0023193.0097046.0078735.0244141.0206909.0466919.0289917.0709839.4439087 1.3054199 1.4578857 2.3689575 2.8017578 2.8323975.0162964.0056152.0327759.00354.0491333.0083008.4693604.1657104.9612427.2548828 1.4625854.2548828.3769531 0 .7587891-.0473633 1.1367188-.1416016 1.6445312-.4091797 2.9443359-1.7426758 3.3125-3.3979492.3066407-1.3813479-.0166015-2.7973636-.8886718-3.8837893zm-1.0644532 3.4501953c-.2011719.9067383-.9414062 1.6669922-1.8417969 1.8911133-.515625.1274414-1.0292969.1054688-1.4892578-.0664062-.0042114-.0015869-.0085449-.0004883-.0127563-.0020142-.0040283-.0014648-.0065918-.0048828-.0106812-.0062866-.7275391-.2512207-1.2788696-.8195801-1.538208-1.5197754-.1039429-.2814331-.1655884-.5820312-.1657715-.8953857 0-.0238037.0054321-.0461426.0061035-.0696411.0040894-.1066895.012085-.2137451.0289307-.3150024.0002441-.0015259-.0003662-.0028687-.0001221-.0043945.0008545-.005127.0042114-.0089722.0050049-.0141602.1835938-1.2304688 1.2685547-2.1582031 2.5224609-2.1582031.78125 0 1.5107422.3505859 2.0009766.9614258.4970704.6196287.6728516 1.4003904.4951172 2.1987303z"/><path d="m61.0478516 27.9204102-3.9033203-.1855469c-.2832031-.0102539-.5244141.0810547-.7207031.2597656s-.3134766.4277344-.3261719.6928711c-.144104 3.1201782-1.2260132 5.1674194-2.0496826 6.2927856-1.4663696-.2167969-3.038269.0710449-4.6856689.8659058-1.8222656.8852539-3.3916016 2.2827148-4.5380859 4.0400391-1.7311401 2.6463623-3.7128906 4.9318848-5.9003906 6.8305664v-28.831543c0-1.40271-.930603-2.5797729-2.2021484-2.9823608v-2.2174072c1.2282104-.081665 2.2050781-1.0965576 2.2050781-2.3451538v-5.3476563c0-1.3012695-1.0585938-2.3603516-2.3603516-2.3603516h-31.7109376c-1.3017578 0-2.3603516 1.059082-2.3603516 2.3603516v5.3476562c0 1.24823.9763184 2.2628784 2.2041016 2.3450317v2.2180176c-1.2756348.4037476-2.2089844 1.5845337-2.2089844 2.9916382v36.5957031c0 1.737793 1.4140625 3.1518555 3.1523438 3.1518555h12.2549438c.0957031.5328369.3106689 1.0327759.6708374 1.4682617 1.4755859 1.7861328 4.6894531 2.0639648 5.0107422 2.0859375.1865234.0209961 1.703125.1811523 4.0917969.1811523 5.2285156 0 14.6357422-.7680664 23.4111328-5.4472656 5.7333984-3.059082 9.1484375-6.3208008 10.1503906-9.6938477.6376953-2.1494141.0517578-3.6000977-.1279297-3.9682617-.6152344-1.6055908-1.3344116-2.9459229-2.1342163-4.02948 1.3585815-1.9368286 2.8253784-4.9784546 3.0287476-9.2722778.0263671-.5517577-.4003907-1.0200195-.9511719-1.0463866zm-54.3486328-15.2192383h28.0224609v2.0341797h-28.0224609zm-2.2041016-2.3608399v-5.3476562c0-.1987305.1621094-.3603516.3603516-.3603516h31.7109375c.1982422 0 .3603516.1616211.3603516.3603516v5.3476562c0 .1987305-.1621094.3608398-.3603516.3608398h-.8447266-30.0224609-.84375c-.1982422.0000001-.3603516-.1621093-.3603516-.3608398zm-.0048828 44.1503907v-6.9037476c1.4634399 1.7480469 3.6043701 2.7509155 5.8798828 2.7509155 2.8099365 0 5.3671875-1.5487671 6.6955566-3.953125.572876.2973022 1.1879883.4970093 1.8186035.6401978.5595703.1275024 1.1299438.215271 1.7143555.215271.2374268 0 .4766235-.0143433.7158203-.0360718.0267334-.0023804.0533447-.0012817.0800781-.0039673.1360474-.0137939.2688599-.0386963.402832-.0597534 1.2232666-.1921387 2.3565063-.6762085 3.3187256-1.387207 1.7797241-1.3146973 2.9821777-3.3799438 3.1231689-5.6912231.0107422-.1817627.0009155-.3612671-.0010376-.541748-.0184326-2.0211792-.8148804-3.9437256-2.2317505-5.3577881.2102661-.3328247.395752-.6790771.5510864-1.0402222.232605.0213013.4645386.0354614.6934204.0354614 2.2929688 0 4.4462891-1.0151367 5.9082031-2.7856445 1.4648438-1.7734375 2.0507812-4.1083984 1.609375-6.4052734-.0009766-.0009766-.0009766-.0014648-.0009766-.0024414-.5888672-3.0219727-3.0166016-5.4316406-6.0410156-5.9956055-3.6056519-.6750488-7.1098633 1.2330322-8.5126953 4.5065918-1.168396-.1081543-2.2906494.0409546-3.4052734.4772949-2.7460938 1.0761719-4.6757812 3.6176758-4.9160156 6.4750977-.1936646 2.2937622.6304321 4.5081787 2.227478 6.0922852-.0753174.1196289-.1599121.2331543-.2280884.3567505-1.5407104-.8049316-3.2996826-1.0651245-5.0697021-.7131958-1.7263184.3425903-3.2371826 1.2977295-4.3320312 2.6065674v-19.8751223c0-.6352539.5166016-1.1518555 1.1523438-1.1518555h30.1386719c.6298828 0 1.1425781.512207 1.1425781 1.1420898v30.4154053c-5.9841309 4.3100586-11.9335327 4.9844971-15.03125 4.9844971-.0234375 0-.046875 0-.0703125 0-1.6470947 0-3.0667114.96521-3.6725464 2.3574219h-12.5071411c-.6357422 0-1.1523437-.5166015-1.1523437-1.1518554zm10.7861328-16.8393555c.0547485-.1552124.1356201-.2988281.2041016-.4480591.065979-.1438599.1204834-.293457.1989136-.4309082.0078735-.0137329.0192261-.0256348.0271606-.0393677.0653687.0374146.1368408.062439.2033081.0979004.2339478.1256104.4702759.2442017.7144775.3441772.0213013.008667.0407715.0214844.0621948.0299683-.0477905.0786133-.0838013.1633301-.1265869.2446289-.0125122.0237427-.0247803.0474243-.0369263.0714111-.0699463.1387329-.1331787.2799683-.1884155.4254761-.0119629.031189-.0220947.0628662-.0333862.0943604-.0496216.1398315-.0953979.2807007-.1312256.4257812-.0128174.0510864-.020813.1033325-.0319214.1549683-.0273438.1298218-.0552979.2590942-.0714722.3922119-.0126343.1011353-.0147095.2041016-.0206299.3064575-.0048828.0876465-.0176392.1734619-.0176392.262146 0 1.3964844.6289062 2.6977539 1.7246094 3.5703125.1854858.147644.3834229.2731934.5861816.3884888.0411377.0234375.0822754.0457764.1240234.0678711.4069824.2148438.8408813.3656616 1.2906494.4491577.0557861.010376.1113892.0192871.1676025.0275879.2103882.0310059.4226074.0512085.6369629.0528564.0132446.0001221.026062.0032959.0393066.0032959.0037842 0 .0076904-.0006714.0114746-.0006714.0580444-.0001831.116394-.0075684.1744995-.0099487.2907715-.0115967.5831299-.0436401.8745728-.1104736.1773071-.0405273.348938-.0980225.5184937-.1602783.0292969-.0106812.0604248-.0162964.0894165-.0275879.0431519-.0169678.0827637-.0412598.1253662-.0595093 1.204895-.5134888 2.1541748-1.5552979 2.5457764-2.8106079.0403442-.1282959.0852661-.2550049.1135254-.3873291.0020142-.0094604.0015259-.0189209.003479-.0283813.0489502-.2381592.0741577-.4747314.0870972-.7098389.0028687-.0565796.00354-.1123657.0043335-.1687622.024231-1.2422485-.4331665-2.4107666-1.2697144-3.2717285.0270996-.0186768.050293-.0427856.0771484-.0618286.1741333-.1237793.336731-.2626953.5003662-.401001.0874023-.0738525.1829834-.1364746.2672729-.2142944.0426025.0454712.0831299.0926514.1240845.1394043.0831909.0950317.1677246.1890259.2440796.2890625.0357666.046936.0662231.097168.1004639.1451416.1481323.2072144.2808838.4238281.3994751.6484985.0388184.0736084.0806885.1455688.1162109.2208252.0496216.1049194.0914917.2132568.1346436.321167.0350952.0879517.0703735.1757202.1010742.2654419.0358276.1043701.0670776.2103882.0968018.3169556.0279541.100769.0531616.2024536.0756226.3049316.0220337.0999146.0430298.2001343.0596924.3015137.0202637.1243896.0341187.2501831.0460815.3763428.0079956.0821533.0187988.1636963.0232544.24646.0109863.2133179.0131836.4281616-.000061.6443481-.1669922 2.730957-2.3378906 4.996582-5.0498047 5.2700195-.0305176.0031128-.0604248-.001709-.0908813.0009155-.3275146.0276489-.6539307.0356445-.9747925.0094604-1.0523682-.0863647-2.0567017-.4597168-2.9001465-1.0919189-1.4580078-1.081543-2.2939453-2.7392578-2.2939453-4.5483398.0000001-.6650391.1132813-1.3090821.3437501-1.928711zm6.611206-.2817993c.9516602.5596313 1.4449463 1.656311 1.2061768 2.7901001-.0169067.0807495-.0599976.1513672-.085022.2293701-.1820679.5597534-.5523071 1.0410156-1.0460815 1.3538208-.0336304.0211792-.0596924.0526123-.0942993.0722046-.0030518.001709-.0066528.0021362-.0097046.0038452-.203064.1135254-.4221191.2002563-.6525879.2518921-.3572388.0822144-.7091675.0827637-1.0474243.0259399-.4189453-.0709839-.8148804-.2357178-1.1596069-.5103149-.6162109-.4902344-.96875-1.2216797-.96875-2.0063477 0-.7131348.3106689-1.3786011.8218994-1.8598633.2140503.0196533.4356079.0317383.6722412.0317383.8063964 0 1.5986328-.1334839 2.3631591-.3823852zm4.2198487-6.3275757c-.9003906-.1899414-1.7412109-.5947266-2.4394531-1.1748047-1.0263672-.8398438-1.7255859-2.0166016-1.9697266-3.3198242-.0722656-.3701172-.1083984-.7270508-.1083984-1.0615234 0-.5292969.0820312-1.0805664.2412109-1.6289062.7304688-2.4287109 2.96875-4.0229492 5.4492188-4.0229492.3554688 0 .7167969.0327148 1.078125.1005859 2.2255859.4150391 4.0126953 2.1879883 4.4462891 4.4116211.328125 1.7084961-.1044922 3.440918-1.1875 4.7524414-1.3203126 1.599121-3.4179688 2.3627929-5.5097657 1.9433593zm-6.2233277-3.4752808c.3637695 1.2990723 1.0699463 2.4818115 2.0388794 3.420166-.1726685.4772339-.4867554.8898315-.9151611 1.1918335-.7207031.5151367-1.6816406.6176758-2.4765625.2744141-1.0126953-.4174805-1.8476562-1.5976562-1.4833984-3.0463867.2392578-.949707 1.0927734-1.7099609 2.0771484-1.8491211.2636108-.0366821.5151978-.026062.7590942.0090942zm-.291687-2.0304565c-.2452393-.003479-.4931641.005249-.7467041.0408936-1.796875.2539062-3.2978516 1.5966797-3.7373047 3.3413086-.5664062 2.2509766.5527344 4.5151367 2.6445312 5.3774414.5498047.237793 1.1464844.3583984 1.7714844.3583984.953125 0 1.8681641-.2929688 2.640625-.8442383.5947876-.4192505 1.0565186-.9876099 1.3867798-1.6263428.3244629.1802368.6607666.3391113 1.0108032.4714355-.1843262.3612671-.3998413.7068481-.663208 1.0255127-.5934448.7211304-1.3527832 1.2787476-2.1984253 1.6287842-.0321655.0132446-.0620728.0314331-.0945435.0440674-.0005493.0001831-.0009766.0006104-.0015259.0008545-.0011597.0004272-.0021973.0011597-.0033569.0015869-.9494629.3734131-1.9994507.4838257-2.9101562.328064-.0078735-.0013428-.0145264-.0056152-.0224609-.0067749-.6387329-.0927124-1.2505493-.3048096-1.8152466-.6060181-.2769775-.1484985-.5466309-.3118286-.7970581-.5062866-1.5224609-1.1772461-2.3339844-3.0351562-2.171875-4.9692383.1777344-2.1040039 1.6113281-3.9804688 3.6533203-4.7807617.6975098-.2730713 1.4019165-.3885498 2.1290894-.3701172-.0491333.3500977-.0773315.6981812-.0773315 1.0410156 0 .0164185.0024414.0339356.0025634.0504151zm-6.6314697 13.3882446c-.7376709-.5119019-1.6296997-.8161011-2.59375-.8161011-2.5175781 0-4.5654297 2.0478516-4.5654297 4.5649414s2.0478516 4.5649414 4.5654297 4.5649414c1.9249268 0 3.5668945-1.2010498 4.2372437-2.8897705.2454834.3060913.5128784.5964355.807373.8657227-.9464722 1.888916-2.8892212 3.1236572-5.041687 3.1236572-1.6884766 0-3.2783203-.7470703-4.3613281-2.0498047-1.0800781-1.3012695-1.5195312-3.0185547-1.203125-4.7128906.4130859-2.2207031 2.1835938-4.0087891 4.4052734-4.449707 1.3861084-.2745361 2.765686-.0518799 3.9492798.6237793-.0959473.3842773-.1654053.7759399-.1992798 1.1752319zm-.0283203 3.7488403c0 1.4145508-1.1503906 2.5649414-2.5654297 2.5649414s-2.5654297-1.1503906-2.5654297-2.5649414 1.1503906-2.5649414 2.5654297-2.5649414 2.5654297 1.1503907 2.5654297 2.5649414zm46.3798828.4824219c.0048828.0087891.4648438.9526367.0019531 2.5117188-.5800781 1.953125-2.6425781 5.0131836-9.1738281 8.4985352-12.2216797 6.5170898-26.1992188 5.0600586-26.3779297 5.0395508-.6972656-.0517578-2.8671875-.4145508-3.6542969-1.3706055-.2255859-.2734375-.3105469-.5712891-.2666016-.9345703.1123047-.9277344.9863281-1.6171875 2.0527344-1.6152344 3.4160156 0 10.0478516-.7470703 16.6279297-5.6674805 3.0185547-2.2563477 5.7021484-5.1621094 7.9765625-8.6376953.9482422-1.4550781 2.2412109-2.6079102 3.734375-3.3334961 1.4568481-.7011108 2.7927246-.9036865 3.97229-.5982056.0004883.0001221.0008545.0004272.0013428.0005493.9980469.2558594 1.9003906.8632812 2.7587891 1.8569336.0001831.0001831.0004883.0003052.0006714.0004883.8582153 1.0022583 1.6279297 2.3890381 2.2874146 4.1225586.0166015.043457.0361328.0859375.0585937.1269531zm-1.7128906-6.453125c-.4970703-.4428711-1.0195312-.8046875-1.5644531-1.0839844.8105469-1.2626953 1.6972656-3.190918 1.9833984-5.8398438l1.9082031.0908203c-.3095703 3.0336915-1.321289 5.2841798-2.3271484 6.8330079z"/><path d="m52.7568359 48.8754883c-2.5800781 1.9233398-5.390625 3.5268555-8.3525391 4.7666016-2.4423828 1.0219727-4.9980469 1.7998047-7.5976562 2.3125-.5419922.1069336-.8945312.6323242-.7880859 1.1743164.0947266.4765625.5126953.8066406.9804688.8066406.0644531 0 .1289062-.0058594.1943359-.019043 2.7314453-.5385742 5.4169922-1.355957 7.9824219-2.4296875 3.1123047-1.3022461 6.0654297-2.9873047 8.7763672-5.0078125.4423828-.3300781.5341797-.956543.2041016-1.3994141-.3300782-.4423828-.9560548-.5346679-1.3994142-.2041015z"/></svg>