<?xml version="1.0" encoding="iso-8859-1"?>
<!-- Generator: Adobe Illustrator 19.0.0, SVG Export Plug-In . SVG Version: 6.00 Build 0)  -->
<svg version="1.1" id="Capa_1" xmlns="http://www.w3.org/2000/svg" xmlns:xlink="http://www.w3.org/1999/xlink" x="0px" y="0px"
	 viewBox="0 0 512 512" style="enable-background:new 0 0 512 512;" xml:space="preserve">
<g>
	<g>
		<path d="M404,71.197V50c0-5.523-4.477-10-10-10H266.127v-1.103C266.127,17.449,248.678,0,227.23,0s-38.896,17.449-38.896,38.897
			V40h-18.667c-5.523,0-10,4.477-10,10s4.477,10,10,10h76.46v81.598l-75.78,53.681c-2.646,1.875-4.22,4.917-4.22,8.16V356
			c0,5.523,4.477,10,10,10h160c5.523,0,10-4.477,10-10V203.439c0-3.243-1.573-6.285-4.22-8.16l-75.78-53.681V60H384v249.149
			C384,385.712,321.712,448,245.149,448H158.85C82.288,448,20,385.712,20,309.149V60h67.5c5.523,0,10-4.477,10-10s-4.477-10-10-10
			H10C4.477,40,0,44.477,0,50v259.149C0,368.785,33.038,420.84,81.767,448H32c-17.645,0-32,14.355-32,32c0,17.645,14.355,32,32,32
			h380c17.645,0,32-14.355,32-32c0-17.645-14.355-32-32-32h-89.767c40.167-22.388,69.664-61.692,78.791-108.215
			C462.832,336.138,512,284.707,512,222v-33.231C512,127.072,464.402,76.29,404,71.197z M246.126,40h-37.793v-1.103
			c0-10.42,8.477-18.897,18.896-18.897c10.42,0,18.897,8.477,18.897,18.897V40z M326.127,208.61V346h-140V208.61l60-42.502v18.38
			c0,5.523,4.477,10,10,10s10-4.477,10-10v-18.38L326.127,208.61z M412,468c6.617,0,12,5.383,12,12s-5.383,12-12,12H32
			c-6.617,0-12-5.383-12-12s5.383-12,12-12h126.851h86.299H412z M404,131.65c27.23,4.755,48,28.549,48,57.119V222
			c0,28.57-20.77,52.365-48,57.119V131.65z M492,222c0,50.781-38.824,92.66-88.348,97.525c0.222-3.431,0.348-6.889,0.348-10.375
			v-9.812c38.301-4.927,68-37.718,68-77.337V188.77c0-39.623-29.694-72.44-68-77.362V91.275c49.36,5.023,88,46.83,88,97.494V222z"/>
	</g>
</g>
<g>
	<g>
		<path d="M134.74,42.93c-1.86-1.86-4.44-2.93-7.07-2.93c-2.64,0-5.21,1.07-7.07,2.93c-1.87,1.86-2.93,4.44-2.93,7.07
			s1.06,5.21,2.93,7.07c1.86,1.86,4.44,2.93,7.07,2.93s5.21-1.07,7.07-2.93c1.86-1.86,2.93-4.44,2.93-7.07S136.6,44.79,134.74,42.93
			z"/>
	</g>
</g>
<g>
	<g>
		<path d="M303.567,228.975c-0.146-2.347-1.117-4.652-2.911-6.446c-1.775-1.774-4.051-2.742-6.373-2.903
			c-4.003-0.345-45.974-3.321-70.996,21.223c-23.553,23.115-22.301,61.814-21.658,70.616c-0.01,1.087,0.158,2.187,0.514,3.253
			c1.223,3.667,4.449,6.3,8.286,6.764c0.557,0.067,4.834,0.556,11.255,0.556c15.338,0,42.908-2.787,61.218-20.758
			C307.419,277.219,304.245,235.585,303.567,228.975z M268.892,287.006c-9.243,9.073-22.603,12.797-33.975,14.219l14.747-14.747
			c3.905-3.905,3.905-10.237,0-14.143c-3.905-3.904-10.237-3.904-14.143,0l-12.481,12.481c1.954-10.293,6.014-21.605,14.253-29.692
			c13.387-13.129,34.894-15.529,46.776-15.77C284.15,251.577,282.272,273.875,268.892,287.006z"/>
	</g>
</g>
<g>
	<g>
		<path d="M58,152c-5.523,0-10,4.477-10,10v129.939c0,5.523,4.477,10,10,10s10-4.477,10-10V162C68,156.477,63.523,152,58,152z"/>
	</g>
</g>
<g>
	<g>
		<path d="M65.07,322.82c-1.86-1.86-4.44-2.93-7.07-2.93s-5.21,1.07-7.07,2.93S48,327.25,48,329.89c0,2.63,1.07,5.21,2.93,7.07
			c1.86,1.86,4.44,2.93,7.07,2.93s5.21-1.07,7.07-2.93s2.93-4.44,2.93-7.07S66.93,324.68,65.07,322.82z"/>
	</g>
</g>
<g>
</g>
<g>
</g>
<g>
</g>
<g>
</g>
<g>
</g>
<g>
</g>
<g>
</g>
<g>
</g>
<g>
</g>
<g>
</g>
<g>
</g>
<g>
</g>
<g>
</g>
<g>
</g>
<g>
</g>
</svg>
